<mxfile host="app.diagrams.net" modified="2023-12-12T19:06:19.232Z" agent="Mozilla/5.0 (Windows NT 6.1; Win64; x64; rv:109.0) Gecko/20100101 Firefox/115.0" etag="KkPRb43uVBQtF3ae0BJG" version="22.1.8" type="device" pages="4">
  <diagram name="DFD контекстная" id="ZBcnxafZH-ueTeh2nIAn">
    <mxGraphModel dx="1941" dy="1771" grid="1" gridSize="10" guides="1" tooltips="1" connect="1" arrows="1" fold="1" page="1" pageScale="1" pageWidth="827" pageHeight="1169" math="0" shadow="0">
      <root>
        <mxCell id="0" />
        <mxCell id="1" parent="0" />
        <mxCell id="komNeLyyzliTDDAAMzvB-4" value="Устройство" style="html=1;dashed=0;whitespace=wrap;" parent="1" vertex="1">
          <mxGeometry x="-52.5" y="-564" width="100" height="50" as="geometry" />
        </mxCell>
        <mxCell id="komNeLyyzliTDDAAMzvB-5" value="Пользователь" style="html=1;dashed=0;whitespace=wrap;" parent="1" vertex="1">
          <mxGeometry x="-60" y="-780" width="115" height="50" as="geometry" />
        </mxCell>
        <mxCell id="komNeLyyzliTDDAAMzvB-9" value="&lt;h1 style=&quot;font-size: 20px;&quot;&gt;&lt;font style=&quot;font-size: 20px;&quot;&gt;Заметка для ревьюера&lt;/font&gt;&lt;/h1&gt;&lt;p style=&quot;font-size: 20px;&quot;&gt;&lt;font style=&quot;font-size: 20px;&quot;&gt;Текст заметки&lt;/font&gt;&lt;/p&gt;" style="text;html=1;strokeColor=#d6b656;fillColor=#fff2cc;spacing=5;spacingTop=-20;whiteSpace=wrap;overflow=hidden;rounded=0;fontSize=20;" parent="1" vertex="1">
          <mxGeometry x="-770" y="-450" width="370" height="170" as="geometry" />
        </mxCell>
        <mxCell id="komNeLyyzliTDDAAMzvB-10" value="&lt;h1 style=&quot;font-size: 20px;&quot;&gt;&lt;font style=&quot;font-size: 20px;&quot;&gt;Заметка для ревьюера&lt;/font&gt;&lt;/h1&gt;&lt;p style=&quot;font-size: 20px;&quot;&gt;&lt;font style=&quot;font-size: 20px;&quot;&gt;Текст заметки&lt;/font&gt;&lt;/p&gt;" style="text;html=1;strokeColor=#d6b656;fillColor=#fff2cc;spacing=5;spacingTop=-20;whiteSpace=wrap;overflow=hidden;rounded=0;fontSize=20;" parent="1" vertex="1">
          <mxGeometry x="-760" y="-440" width="370" height="170" as="geometry" />
        </mxCell>
        <mxCell id="komNeLyyzliTDDAAMzvB-11" value="&lt;h1 style=&quot;font-size: 20px;&quot;&gt;&lt;font style=&quot;font-size: 20px;&quot;&gt;Заметка для ревьюера&lt;/font&gt;&lt;/h1&gt;&lt;p style=&quot;font-size: 20px;&quot;&gt;&lt;font style=&quot;font-size: 20px;&quot;&gt;Текст заметки&lt;/font&gt;&lt;/p&gt;" style="text;html=1;strokeColor=#d6b656;fillColor=#fff2cc;spacing=5;spacingTop=-20;whiteSpace=wrap;overflow=hidden;rounded=0;fontSize=20;" parent="1" vertex="1">
          <mxGeometry x="-750" y="-430" width="370" height="170" as="geometry" />
        </mxCell>
        <mxCell id="komNeLyyzliTDDAAMzvB-12" value="&lt;h1 style=&quot;font-size: 20px;&quot;&gt;&lt;font style=&quot;font-size: 20px;&quot;&gt;Заметка для ревьюера&lt;/font&gt;&lt;/h1&gt;&lt;p style=&quot;font-size: 20px;&quot;&gt;&lt;font style=&quot;font-size: 20px;&quot;&gt;Текст заметки&lt;/font&gt;&lt;/p&gt;" style="text;html=1;strokeColor=#d6b656;fillColor=#fff2cc;spacing=5;spacingTop=-20;whiteSpace=wrap;overflow=hidden;rounded=0;fontSize=20;" parent="1" vertex="1">
          <mxGeometry x="-740" y="-420" width="370" height="170" as="geometry" />
        </mxCell>
        <mxCell id="komNeLyyzliTDDAAMzvB-13" value="&lt;h1 style=&quot;font-size: 20px;&quot;&gt;&lt;font style=&quot;font-size: 20px;&quot;&gt;Заметка для ревьюера&lt;/font&gt;&lt;/h1&gt;&lt;p style=&quot;font-size: 20px;&quot;&gt;&lt;font style=&quot;font-size: 20px;&quot;&gt;Текст заметки&lt;/font&gt;&lt;/p&gt;" style="text;html=1;strokeColor=#d6b656;fillColor=#fff2cc;spacing=5;spacingTop=-20;whiteSpace=wrap;overflow=hidden;rounded=0;fontSize=20;" parent="1" vertex="1">
          <mxGeometry x="-730" y="-410" width="370" height="170" as="geometry" />
        </mxCell>
        <mxCell id="rhUK0AfXt017CsrgmApv-1" value="0" style="swimlane;childLayout=stackLayout;horizontal=1;startSize=30;horizontalStack=0;rounded=1;fontSize=14;fontStyle=0;strokeWidth=1;resizeParent=0;resizeLast=1;shadow=0;dashed=0;align=center;fillColor=#FFFFFF;" parent="1" vertex="1">
          <mxGeometry x="-70" y="-1060" width="150" height="110" as="geometry" />
        </mxCell>
        <mxCell id="2zmt0uUwI6XW6lC0zx8Q-1" value="Приложение &quot;Stets&quot;" style="text;html=1;align=center;verticalAlign=middle;resizable=0;points=[];autosize=1;strokeColor=none;fillColor=none;" parent="rhUK0AfXt017CsrgmApv-1" vertex="1">
          <mxGeometry y="30" width="150" height="80" as="geometry" />
        </mxCell>
        <mxCell id="TUv_24GLL3CO0skYTIYS-2" value="&lt;div&gt;Данные о&amp;nbsp;&lt;/div&gt;&lt;div&gt;комнатах&lt;/div&gt;" style="edgeStyle=none;html=1;endArrow=open;endSize=12;verticalAlign=top;labelBackgroundColor=none;rounded=0;entryX=0.438;entryY=0.984;entryDx=0;entryDy=0;entryPerimeter=0;exitX=0.5;exitY=0;exitDx=0;exitDy=0;" parent="1" source="komNeLyyzliTDDAAMzvB-5" target="2zmt0uUwI6XW6lC0zx8Q-1" edge="1">
          <mxGeometry x="0.4106" width="160" relative="1" as="geometry">
            <mxPoint x="-15" y="-780" as="sourcePoint" />
            <mxPoint x="-30" y="-950" as="targetPoint" />
            <Array as="points" />
            <mxPoint as="offset" />
          </mxGeometry>
        </mxCell>
        <mxCell id="TUv_24GLL3CO0skYTIYS-5" value="&lt;div&gt;Данные о&amp;nbsp;&lt;/div&gt;&lt;div&gt;комнатах&lt;/div&gt;" style="edgeStyle=none;html=1;endArrow=open;endSize=12;verticalAlign=top;labelBackgroundColor=none;rounded=0;exitX=0.693;exitY=1;exitDx=0;exitDy=0;exitPerimeter=0;entryX=0.817;entryY=-0.02;entryDx=0;entryDy=0;entryPerimeter=0;" parent="1" source="2zmt0uUwI6XW6lC0zx8Q-1" target="komNeLyyzliTDDAAMzvB-5" edge="1">
          <mxGeometry x="-0.0533" y="6" width="160" relative="1" as="geometry">
            <mxPoint x="50" y="-950" as="sourcePoint" />
            <mxPoint x="30" y="-780" as="targetPoint" />
            <mxPoint as="offset" />
          </mxGeometry>
        </mxCell>
        <mxCell id="TUv_24GLL3CO0skYTIYS-6" value="&lt;div&gt;Данные о статусе &lt;br&gt;&lt;/div&gt;&lt;div&gt;устройства&lt;/div&gt;" style="edgeStyle=orthogonalEdgeStyle;html=1;endArrow=open;endSize=12;verticalAlign=top;labelBackgroundColor=none;rounded=0;entryX=-0.025;entryY=0.893;entryDx=0;entryDy=0;entryPerimeter=0;exitX=-0.011;exitY=0.519;exitDx=0;exitDy=0;exitPerimeter=0;" parent="1" source="2zmt0uUwI6XW6lC0zx8Q-1" target="komNeLyyzliTDDAAMzvB-4" edge="1">
          <mxGeometry x="0.4207" y="-10" width="160" relative="1" as="geometry">
            <mxPoint x="-270" y="-930" as="sourcePoint" />
            <mxPoint x="-100" y="-490" as="targetPoint" />
            <mxPoint as="offset" />
            <Array as="points">
              <mxPoint x="-270" y="-988" />
              <mxPoint x="-270" y="-519" />
            </Array>
          </mxGeometry>
        </mxCell>
        <mxCell id="TUv_24GLL3CO0skYTIYS-7" value="&lt;div&gt;Данные о статусе&lt;br&gt;&lt;/div&gt;&lt;div&gt;устройства&lt;/div&gt;" style="edgeStyle=orthogonalEdgeStyle;html=1;endArrow=open;endSize=12;verticalAlign=top;labelBackgroundColor=none;rounded=0;entryX=0;entryY=0.5;entryDx=0;entryDy=0;exitX=0;exitY=0.25;exitDx=0;exitDy=0;" parent="1" source="komNeLyyzliTDDAAMzvB-4" edge="1">
          <mxGeometry x="-0.3137" y="-20" width="160" relative="1" as="geometry">
            <mxPoint x="-80" y="-560" as="sourcePoint" />
            <mxPoint x="-70" y="-960" as="targetPoint" />
            <mxPoint as="offset" />
            <Array as="points">
              <mxPoint x="-52" y="-553" />
              <mxPoint x="-230" y="-553" />
              <mxPoint x="-230" y="-960" />
            </Array>
          </mxGeometry>
        </mxCell>
        <mxCell id="2zmt0uUwI6XW6lC0zx8Q-2" value="&lt;div&gt;Сведения о&amp;nbsp;&lt;/div&gt;&lt;div&gt;пользователях&lt;/div&gt;" style="edgeStyle=orthogonalEdgeStyle;html=1;endArrow=open;endSize=12;verticalAlign=top;labelBackgroundColor=none;rounded=0;entryX=0.25;entryY=1;entryDx=0;entryDy=0;exitX=0;exitY=0.25;exitDx=0;exitDy=0;" parent="1" source="komNeLyyzliTDDAAMzvB-5" target="rhUK0AfXt017CsrgmApv-1" edge="1">
          <mxGeometry x="-0.0255" width="160" relative="1" as="geometry">
            <mxPoint x="-100" y="-820" as="sourcePoint" />
            <mxPoint x="-52.5" y="-950" as="targetPoint" />
            <mxPoint as="offset" />
            <Array as="points">
              <mxPoint x="-80" y="-767" />
              <mxPoint x="-80" y="-900" />
              <mxPoint x="-32" y="-900" />
            </Array>
          </mxGeometry>
        </mxCell>
        <mxCell id="2zmt0uUwI6XW6lC0zx8Q-3" value="&lt;div&gt;Сведения о&amp;nbsp;&lt;/div&gt;&lt;div&gt;пользователях&lt;/div&gt;" style="edgeStyle=orthogonalEdgeStyle;html=1;endArrow=open;endSize=12;verticalAlign=top;labelBackgroundColor=none;rounded=0;exitX=0.183;exitY=0.998;exitDx=0;exitDy=0;exitPerimeter=0;entryX=0;entryY=0.5;entryDx=0;entryDy=0;" parent="1" source="2zmt0uUwI6XW6lC0zx8Q-1" target="komNeLyyzliTDDAAMzvB-5" edge="1">
          <mxGeometry x="0.1776" y="10" width="160" relative="1" as="geometry">
            <mxPoint x="-80.94999999999982" y="-940" as="sourcePoint" />
            <mxPoint x="-60" y="-745" as="targetPoint" />
            <mxPoint as="offset" />
            <Array as="points">
              <mxPoint x="-43" y="-905" />
              <mxPoint x="-130" y="-905" />
              <mxPoint x="-130" y="-755" />
            </Array>
          </mxGeometry>
        </mxCell>
        <mxCell id="2zmt0uUwI6XW6lC0zx8Q-5" value="&lt;div&gt;Сведения о сценариях автоматизации&amp;nbsp;&lt;/div&gt;&lt;div&gt;работы устройств&lt;/div&gt;" style="edgeStyle=none;html=1;endArrow=open;endSize=12;verticalAlign=top;labelBackgroundColor=none;rounded=0;entryX=1;entryY=0.25;entryDx=0;entryDy=0;exitX=1.008;exitY=0.528;exitDx=0;exitDy=0;exitPerimeter=0;" parent="1" source="2zmt0uUwI6XW6lC0zx8Q-1" target="komNeLyyzliTDDAAMzvB-4" edge="1">
          <mxGeometry x="0.7721" y="-39" width="160" relative="1" as="geometry">
            <mxPoint x="250" y="-980" as="sourcePoint" />
            <mxPoint x="80" y="-820" as="targetPoint" />
            <mxPoint as="offset" />
            <Array as="points">
              <mxPoint x="250" y="-988" />
              <mxPoint x="250" y="-550" />
            </Array>
          </mxGeometry>
        </mxCell>
        <mxCell id="2zmt0uUwI6XW6lC0zx8Q-6" value="&lt;div&gt;Сведения об&amp;nbsp;&lt;/div&gt;&lt;div&gt;устройствах&lt;/div&gt;" style="edgeStyle=none;html=1;endArrow=open;endSize=12;verticalAlign=top;labelBackgroundColor=none;rounded=0;exitX=0.933;exitY=1;exitDx=0;exitDy=0;entryX=1;entryY=0.5;entryDx=0;entryDy=0;exitPerimeter=0;" parent="1" source="2zmt0uUwI6XW6lC0zx8Q-1" target="komNeLyyzliTDDAAMzvB-5" edge="1">
          <mxGeometry x="0.2903" y="-10" width="160" relative="1" as="geometry">
            <mxPoint x="161" y="-768" as="sourcePoint" />
            <mxPoint x="160" y="-950" as="targetPoint" />
            <mxPoint as="offset" />
            <Array as="points">
              <mxPoint x="70" y="-930" />
              <mxPoint x="120" y="-930" />
              <mxPoint x="120" y="-755" />
            </Array>
          </mxGeometry>
        </mxCell>
        <mxCell id="2zmt0uUwI6XW6lC0zx8Q-7" value="&lt;div&gt;Сведения о сценариях&amp;nbsp;&lt;/div&gt;&lt;div&gt;автоматизации&amp;nbsp;&lt;/div&gt;&lt;div&gt;работы устройств&lt;/div&gt;" style="edgeStyle=orthogonalEdgeStyle;html=1;endArrow=open;endSize=12;verticalAlign=top;labelBackgroundColor=none;rounded=0;entryX=0.122;entryY=1.02;entryDx=0;entryDy=0;entryPerimeter=0;" parent="1" edge="1">
          <mxGeometry x="0.5529" y="-30" width="160" relative="1" as="geometry">
            <mxPoint x="80" y="-980" as="sourcePoint" />
            <mxPoint x="24.0300000000002" y="-731" as="targetPoint" />
            <mxPoint as="offset" />
            <Array as="points">
              <mxPoint x="80" y="-970" />
              <mxPoint x="210" y="-970" />
              <mxPoint x="210" y="-640" />
              <mxPoint x="24" y="-640" />
            </Array>
          </mxGeometry>
        </mxCell>
        <mxCell id="2zmt0uUwI6XW6lC0zx8Q-8" value="&lt;div&gt;Сведения об&amp;nbsp;&lt;/div&gt;&lt;div&gt;устройствах&lt;/div&gt;" style="edgeStyle=orthogonalEdgeStyle;html=1;endArrow=open;endSize=12;verticalAlign=top;labelBackgroundColor=none;rounded=0;" parent="1" edge="1">
          <mxGeometry x="-0.5535" y="38" width="160" relative="1" as="geometry">
            <mxPoint x="48" y="-728" as="sourcePoint" />
            <mxPoint x="77.5" y="-960" as="targetPoint" />
            <mxPoint as="offset" />
            <Array as="points">
              <mxPoint x="47.5" y="-728" />
              <mxPoint x="47.5" y="-690" />
              <mxPoint x="177.5" y="-690" />
              <mxPoint x="177.5" y="-960" />
            </Array>
          </mxGeometry>
        </mxCell>
        <mxCell id="cclNedtX-e4CRMRb0ruf-1" value="&lt;div&gt;Сведения о сценарях автоматизации&amp;nbsp;&lt;/div&gt;&lt;div&gt;работы устройств&lt;/div&gt;" style="edgeStyle=none;html=1;endArrow=open;endSize=12;verticalAlign=top;labelBackgroundColor=none;rounded=0;entryX=1;entryY=0.5;entryDx=0;entryDy=0;" parent="1" target="rhUK0AfXt017CsrgmApv-1" edge="1">
          <mxGeometry x="-0.737" y="4" width="160" relative="1" as="geometry">
            <mxPoint x="47.5" y="-526" as="sourcePoint" />
            <mxPoint x="100" y="-1020" as="targetPoint" />
            <mxPoint as="offset" />
            <Array as="points">
              <mxPoint x="290" y="-526" />
              <mxPoint x="290" y="-1005" />
            </Array>
          </mxGeometry>
        </mxCell>
        <mxCell id="bqVEvRp8c5GW9fJH-yUu-2" value="&lt;div&gt;Сведения о сценариях&amp;nbsp;&lt;/div&gt;&lt;div&gt;автоматизации&amp;nbsp;&lt;/div&gt;&lt;div&gt;работы устройств&lt;/div&gt;" style="edgeStyle=orthogonalEdgeStyle;html=1;endArrow=open;endSize=12;verticalAlign=top;labelBackgroundColor=none;rounded=0;entryX=0.079;entryY=1.019;entryDx=0;entryDy=0;entryPerimeter=0;exitX=0.25;exitY=1;exitDx=0;exitDy=0;" parent="1" source="komNeLyyzliTDDAAMzvB-5" target="2zmt0uUwI6XW6lC0zx8Q-1" edge="1">
          <mxGeometry x="-0.1505" y="-10" width="160" relative="1" as="geometry">
            <mxPoint x="-30" y="-700" as="sourcePoint" />
            <mxPoint x="-70" y="-930" as="targetPoint" />
            <mxPoint as="offset" />
            <Array as="points">
              <mxPoint x="-30" y="-730" />
              <mxPoint x="-30" y="-650" />
              <mxPoint x="-150" y="-650" />
              <mxPoint x="-150" y="-920" />
              <mxPoint x="-58" y="-920" />
            </Array>
          </mxGeometry>
        </mxCell>
      </root>
    </mxGraphModel>
  </diagram>
  <diagram name="DFD логические" id="3TGKHFUe73J0Ve4-S2-0">
    <mxGraphModel dx="1941" dy="1771" grid="1" gridSize="10" guides="1" tooltips="1" connect="1" arrows="1" fold="1" page="1" pageScale="1" pageWidth="827" pageHeight="1169" math="0" shadow="0">
      <root>
        <mxCell id="0" />
        <mxCell id="1" parent="0" />
        <mxCell id="a9Sl7O8uez9xCAdCzFx1-50" value="Пользователь" style="html=1;fontSize=11;" parent="1" vertex="1">
          <mxGeometry x="-365.06" y="-510.03999999999996" width="110" height="50" as="geometry" />
        </mxCell>
        <mxCell id="a9Sl7O8uez9xCAdCzFx1-55" value="Устройства" style="html=1;fontSize=11;" parent="1" vertex="1">
          <mxGeometry x="320" y="-570.04" width="110" height="50" as="geometry" />
        </mxCell>
        <mxCell id="JQqJk8gsrpiBfC45wu2H-2" value="&lt;h1 style=&quot;font-size: 20px;&quot;&gt;&lt;font style=&quot;font-size: 20px;&quot;&gt;Заметка для ревьюера&lt;/font&gt;&lt;/h1&gt;&lt;p style=&quot;font-size: 20px;&quot;&gt;&lt;font style=&quot;font-size: 20px;&quot;&gt;Текст заметки&lt;/font&gt;&lt;/p&gt;" style="text;html=1;strokeColor=#d6b656;fillColor=#fff2cc;spacing=5;spacingTop=-20;whiteSpace=wrap;overflow=hidden;rounded=0;fontSize=20;" parent="1" vertex="1">
          <mxGeometry x="-770" y="-410" width="370" height="170" as="geometry" />
        </mxCell>
        <mxCell id="JQqJk8gsrpiBfC45wu2H-3" value="&lt;h1 style=&quot;font-size: 20px;&quot;&gt;&lt;font style=&quot;font-size: 20px;&quot;&gt;Заметка для ревьюера&lt;/font&gt;&lt;/h1&gt;&lt;p style=&quot;font-size: 20px;&quot;&gt;&lt;font style=&quot;font-size: 20px;&quot;&gt;Текст заметки&lt;/font&gt;&lt;/p&gt;" style="text;html=1;strokeColor=#d6b656;fillColor=#fff2cc;spacing=5;spacingTop=-20;whiteSpace=wrap;overflow=hidden;rounded=0;fontSize=20;" parent="1" vertex="1">
          <mxGeometry x="-760" y="-400" width="370" height="170" as="geometry" />
        </mxCell>
        <mxCell id="JQqJk8gsrpiBfC45wu2H-4" value="&lt;h1 style=&quot;font-size: 20px;&quot;&gt;&lt;font style=&quot;font-size: 20px;&quot;&gt;Заметка для ревьюера&lt;/font&gt;&lt;/h1&gt;&lt;p style=&quot;font-size: 20px;&quot;&gt;&lt;font style=&quot;font-size: 20px;&quot;&gt;Текст заметки&lt;/font&gt;&lt;/p&gt;" style="text;html=1;strokeColor=#d6b656;fillColor=#fff2cc;spacing=5;spacingTop=-20;whiteSpace=wrap;overflow=hidden;rounded=0;fontSize=20;" parent="1" vertex="1">
          <mxGeometry x="-750" y="-390" width="370" height="170" as="geometry" />
        </mxCell>
        <mxCell id="JQqJk8gsrpiBfC45wu2H-5" value="&lt;h1 style=&quot;font-size: 20px;&quot;&gt;&lt;font style=&quot;font-size: 20px;&quot;&gt;Заметка для ревьюера&lt;/font&gt;&lt;/h1&gt;&lt;p style=&quot;font-size: 20px;&quot;&gt;&lt;font style=&quot;font-size: 20px;&quot;&gt;Текст заметки&lt;/font&gt;&lt;/p&gt;" style="text;html=1;strokeColor=#d6b656;fillColor=#fff2cc;spacing=5;spacingTop=-20;whiteSpace=wrap;overflow=hidden;rounded=0;fontSize=20;" parent="1" vertex="1">
          <mxGeometry x="-740" y="-380" width="370" height="170" as="geometry" />
        </mxCell>
        <mxCell id="TyFQIvKSNbhwDLeUT2OL-1" value="1" style="swimlane;childLayout=stackLayout;horizontal=1;startSize=30;horizontalStack=0;rounded=1;fontSize=14;fontStyle=0;strokeWidth=1;resizeParent=0;resizeLast=1;shadow=0;dashed=0;align=center;fillColor=#FFFFFF;" parent="1" vertex="1">
          <mxGeometry x="-390" y="-834.5" width="150" height="110" as="geometry" />
        </mxCell>
        <mxCell id="TyFQIvKSNbhwDLeUT2OL-2" value="Управление &#xa;учетной записью&#xa; пользователя" style="align=center;strokeColor=none;fillColor=none;spacingLeft=4;fontSize=12;verticalAlign=middle;resizable=0;rotatable=0;part=1;" parent="TyFQIvKSNbhwDLeUT2OL-1" vertex="1">
          <mxGeometry y="30" width="150" height="80" as="geometry" />
        </mxCell>
        <mxCell id="YQQy5V_FMgmYfQe--kPU-1" value="&lt;div&gt;Форма вывода&lt;br&gt;&lt;/div&gt;Данные о комнатах" style="edgeStyle=orthogonalEdgeStyle;html=1;endArrow=open;endSize=12;verticalAlign=top;labelBackgroundColor=none;rounded=0;exitX=0.201;exitY=1.02;exitDx=0;exitDy=0;exitPerimeter=0;entryX=0.995;entryY=0.414;entryDx=0;entryDy=0;entryPerimeter=0;" parent="1" target="a9Sl7O8uez9xCAdCzFx1-50" edge="1">
          <mxGeometry x="-0.6797" y="10" width="160" relative="1" as="geometry">
            <mxPoint x="100.15000000000009" y="-724.5" as="sourcePoint" />
            <mxPoint x="-250" y="-490" as="targetPoint" />
            <mxPoint as="offset" />
            <Array as="points">
              <mxPoint x="100" y="-698" />
              <mxPoint x="60" y="-698" />
              <mxPoint x="60" y="-489" />
            </Array>
          </mxGeometry>
        </mxCell>
        <mxCell id="YQQy5V_FMgmYfQe--kPU-2" value="&lt;div&gt;Форма ввода&lt;br&gt;&lt;/div&gt;&lt;div&gt;Сведения о статусе&amp;nbsp;&lt;/div&gt;&lt;div&gt;устройства&lt;/div&gt;" style="edgeStyle=orthogonalEdgeStyle;html=1;endArrow=open;endSize=12;verticalAlign=top;labelBackgroundColor=none;rounded=0;entryX=0.544;entryY=0.98;entryDx=0;entryDy=0;entryPerimeter=0;" parent="1" edge="1">
          <mxGeometry x="0.5382" y="-16" width="160" relative="1" as="geometry">
            <mxPoint x="414" y="-570.04" as="sourcePoint" />
            <mxPoint x="414.60000000000014" y="-726.14" as="targetPoint" />
            <mxPoint as="offset" />
            <Array as="points">
              <mxPoint x="414" y="-620.04" />
            </Array>
          </mxGeometry>
        </mxCell>
        <mxCell id="YQQy5V_FMgmYfQe--kPU-6" value="&lt;div&gt;Форма ввода&lt;br&gt;&lt;/div&gt;&lt;div&gt;Сведения о&amp;nbsp;&lt;/div&gt;&lt;div&gt;пользователях&lt;/div&gt;" style="edgeStyle=orthogonalEdgeStyle;html=1;endArrow=open;endSize=12;verticalAlign=top;labelBackgroundColor=none;rounded=0;entryX=0.464;entryY=1.038;entryDx=0;entryDy=0;entryPerimeter=0;" parent="1" source="a9Sl7O8uez9xCAdCzFx1-50" target="TyFQIvKSNbhwDLeUT2OL-2" edge="1">
          <mxGeometry x="0.8916" y="10" width="160" relative="1" as="geometry">
            <mxPoint x="-90" y="-636.8" as="sourcePoint" />
            <mxPoint x="-320" y="-704.5" as="targetPoint" />
            <mxPoint as="offset" />
            <Array as="points">
              <mxPoint x="-320" y="-596.5" />
            </Array>
          </mxGeometry>
        </mxCell>
        <mxCell id="Zyh3H8FYmq4xcjnxFiKj-3" value="&lt;div&gt;Форма вывода&lt;br&gt;&lt;/div&gt;&lt;div&gt;Сведения об&amp;nbsp;&lt;/div&gt;&lt;div&gt;устройствах&lt;/div&gt;" style="edgeStyle=orthogonalEdgeStyle;html=1;endArrow=open;endSize=12;verticalAlign=top;labelBackgroundColor=none;rounded=0;exitX=0.194;exitY=1.006;exitDx=0;exitDy=0;exitPerimeter=0;entryX=0.988;entryY=0.094;entryDx=0;entryDy=0;entryPerimeter=0;" parent="1" source="i30u3QJIeOBKBD1oavNI-115" target="a9Sl7O8uez9xCAdCzFx1-50" edge="1">
          <mxGeometry x="-0.1323" y="-35" width="160" relative="1" as="geometry">
            <mxPoint x="-249.33999999999995" y="-724.5" as="sourcePoint" />
            <mxPoint x="-249.99999999999991" y="-509.9899999999999" as="targetPoint" />
            <mxPoint as="offset" />
            <Array as="points">
              <mxPoint x="329" y="-723" />
              <mxPoint x="330" y="-723" />
              <mxPoint x="330" y="-680" />
              <mxPoint x="290" y="-680" />
              <mxPoint x="290" y="-505" />
            </Array>
          </mxGeometry>
        </mxCell>
        <mxCell id="DY8u-QS7H1mhDvQWpOhR-1" value="&lt;div&gt;Форма вывода&lt;br&gt;&lt;/div&gt;&lt;div&gt;Сведения о&amp;nbsp;&lt;/div&gt;&lt;div&gt;пользователях&lt;/div&gt;" style="edgeStyle=orthogonalEdgeStyle;html=1;endArrow=open;endSize=12;verticalAlign=top;labelBackgroundColor=none;rounded=0;exitX=0.011;exitY=0.904;exitDx=0;exitDy=0;exitPerimeter=0;entryX=0.129;entryY=-0.036;entryDx=0;entryDy=0;entryPerimeter=0;" parent="1" target="a9Sl7O8uez9xCAdCzFx1-50" edge="1">
          <mxGeometry x="0.0365" y="-10" width="160" relative="1" as="geometry">
            <mxPoint x="-378.3499999999999" y="-724.48" as="sourcePoint" />
            <mxPoint x="-350" y="-530" as="targetPoint" />
            <mxPoint as="offset" />
            <Array as="points">
              <mxPoint x="-380" y="-724" />
              <mxPoint x="-380" y="-534" />
              <mxPoint x="-351" y="-534" />
            </Array>
          </mxGeometry>
        </mxCell>
        <mxCell id="DY8u-QS7H1mhDvQWpOhR-2" value="" style="endArrow=none;dashed=1;html=1;rounded=1;edgeStyle=orthogonalEdgeStyle;" parent="1" edge="1">
          <mxGeometry width="50" height="50" relative="1" as="geometry">
            <mxPoint x="-380.06" y="-450.03999999999996" as="sourcePoint" />
            <mxPoint x="-240.06" y="-450.03999999999996" as="targetPoint" />
            <Array as="points">
              <mxPoint x="-380.06" y="-520.04" />
              <mxPoint x="-240.06" y="-520.04" />
            </Array>
          </mxGeometry>
        </mxCell>
        <mxCell id="DY8u-QS7H1mhDvQWpOhR-5" value="&lt;div&gt;&lt;span style=&quot;background-color: rgb(255, 255, 255);&quot;&gt;D1 &amp;nbsp;&amp;nbsp;&amp;nbsp; Пользователи&lt;br&gt;&lt;/span&gt;&lt;/div&gt;" style="html=1;dashed=0;whiteSpace=wrap;shape=mxgraph.dfd.dataStoreID;align=left;spacingLeft=3;points=[[0,0],[0.5,0],[1,0],[0,0.5],[1,0.5],[0,1],[0.5,1],[1,1]];rotation=-90;" parent="1" vertex="1">
          <mxGeometry x="-360" y="-1039.28" width="140" height="30" as="geometry" />
        </mxCell>
        <mxCell id="DY8u-QS7H1mhDvQWpOhR-6" value="&lt;div&gt;&lt;span style=&quot;background-color: rgb(255, 255, 255);&quot;&gt;D3&amp;nbsp;&amp;nbsp;&amp;nbsp; Комнаты&lt;/span&gt;&lt;/div&gt;" style="html=1;dashed=0;whiteSpace=wrap;shape=mxgraph.dfd.dataStoreID;align=left;spacingLeft=3;points=[[0,0],[0.5,0],[1,0],[0,0.5],[1,0.5],[0,1],[0.5,1],[1,1]];rotation=-90;" parent="1" vertex="1">
          <mxGeometry x="73" y="-1039.28" width="140" height="30" as="geometry" />
        </mxCell>
        <mxCell id="DY8u-QS7H1mhDvQWpOhR-7" value="&lt;div&gt;&lt;span style=&quot;background-color: rgb(255, 255, 255);&quot;&gt;D4 &amp;nbsp;&amp;nbsp;&amp;nbsp; Устройства&lt;/span&gt;&lt;/div&gt;" style="html=1;dashed=0;whiteSpace=wrap;shape=mxgraph.dfd.dataStoreID;align=left;spacingLeft=3;points=[[0,0],[0.5,0],[1,0],[0,0.5],[1,0.5],[0,1],[0.5,1],[1,1]];rotation=-90;" parent="1" vertex="1">
          <mxGeometry x="330" y="-1039.28" width="141" height="30" as="geometry" />
        </mxCell>
        <mxCell id="DY8u-QS7H1mhDvQWpOhR-11" value="" style="endArrow=none;dashed=1;html=1;rounded=1;edgeStyle=orthogonalEdgeStyle;" parent="1" edge="1">
          <mxGeometry width="50" height="50" relative="1" as="geometry">
            <mxPoint x="440" y="-510" as="sourcePoint" />
            <mxPoint x="310" y="-510" as="targetPoint" />
            <Array as="points">
              <mxPoint x="440" y="-580" />
              <mxPoint x="310" y="-580" />
            </Array>
          </mxGeometry>
        </mxCell>
        <mxCell id="2w-4S5Lkt5LEhi4wVCku-1" value="&lt;div&gt;&lt;span style=&quot;background-color: rgb(255, 255, 255);&quot;&gt;Форма вывода&lt;br&gt;&lt;/span&gt;&lt;/div&gt;&lt;div&gt;&lt;span style=&quot;background-color: rgb(255, 255, 255);&quot;&gt;Сведения о&amp;nbsp;&lt;/span&gt;&lt;/div&gt;&lt;div&gt;&lt;span style=&quot;background-color: rgb(255, 255, 255);&quot;&gt;сценариях автоматизации&lt;br&gt;&lt;/span&gt;&lt;/div&gt;" style="edgeStyle=orthogonalEdgeStyle;html=1;endArrow=open;endSize=12;verticalAlign=top;labelBackgroundColor=none;rounded=0;entryX=1;entryY=0.75;entryDx=0;entryDy=0;" parent="1" target="a9Sl7O8uez9xCAdCzFx1-50" edge="1">
          <mxGeometry x="-0.322" y="-37" width="160" relative="1" as="geometry">
            <mxPoint x="670" y="-720" as="sourcePoint" />
            <mxPoint x="-163" y="-525.8" as="targetPoint" />
            <mxPoint x="-1" as="offset" />
            <Array as="points">
              <mxPoint x="670" y="-472" />
            </Array>
          </mxGeometry>
        </mxCell>
        <mxCell id="2w-4S5Lkt5LEhi4wVCku-2" value="&lt;div&gt;&lt;span style=&quot;background-color: rgb(255, 255, 255);&quot;&gt;Форма ввода&lt;br&gt;&lt;/span&gt;&lt;/div&gt;&lt;div&gt;&lt;span style=&quot;background-color: rgb(255, 255, 255);&quot;&gt;Сведения о&lt;br&gt;&lt;/span&gt;&lt;/div&gt;&lt;span style=&quot;background-color: rgb(255, 255, 255);&quot;&gt;сценариях автоматизации&lt;br&gt;&lt;/span&gt;" style="edgeStyle=orthogonalEdgeStyle;html=1;endArrow=open;endSize=12;verticalAlign=top;labelBackgroundColor=none;rounded=0;exitX=1;exitY=0.5;exitDx=0;exitDy=0;entryX=0.5;entryY=1;entryDx=0;entryDy=0;" parent="1" target="i30u3QJIeOBKBD1oavNI-117" edge="1">
          <mxGeometry x="-0.2" y="20" width="160" relative="1" as="geometry">
            <mxPoint x="430" y="-559.5" as="sourcePoint" />
            <mxPoint x="630" y="-560" as="targetPoint" />
            <mxPoint as="offset" />
            <Array as="points">
              <mxPoint x="635" y="-560" />
            </Array>
          </mxGeometry>
        </mxCell>
        <mxCell id="2w-4S5Lkt5LEhi4wVCku-6" value="" style="endArrow=classic;startArrow=classic;html=1;rounded=0;entryX=-0.003;entryY=0.333;entryDx=0;entryDy=0;entryPerimeter=0;" parent="1" target="DY8u-QS7H1mhDvQWpOhR-7" edge="1">
          <mxGeometry width="50" height="50" relative="1" as="geometry">
            <mxPoint x="396.5" y="-833.78" as="sourcePoint" />
            <mxPoint x="436.5" y="-923.78" as="targetPoint" />
          </mxGeometry>
        </mxCell>
        <mxCell id="2w-4S5Lkt5LEhi4wVCku-7" value="Сведения об устройствах" style="text;html=1;align=center;verticalAlign=middle;whiteSpace=wrap;rounded=0;" parent="1" vertex="1">
          <mxGeometry x="365.5" y="-910" width="70" height="30" as="geometry" />
        </mxCell>
        <mxCell id="2w-4S5Lkt5LEhi4wVCku-8" value="" style="endArrow=classic;startArrow=classic;html=1;rounded=0;entryX=0;entryY=0.5;entryDx=0;entryDy=0;" parent="1" target="DY8u-QS7H1mhDvQWpOhR-6" edge="1">
          <mxGeometry width="50" height="50" relative="1" as="geometry">
            <mxPoint x="143" y="-834.5" as="sourcePoint" />
            <mxPoint x="353" y="-964.28" as="targetPoint" />
          </mxGeometry>
        </mxCell>
        <mxCell id="2w-4S5Lkt5LEhi4wVCku-9" value="Данные о комнатах" style="text;html=1;align=center;verticalAlign=middle;whiteSpace=wrap;rounded=0;" parent="1" vertex="1">
          <mxGeometry x="113" y="-924.5" width="60" height="30" as="geometry" />
        </mxCell>
        <mxCell id="2w-4S5Lkt5LEhi4wVCku-11" value="" style="endArrow=classic;startArrow=classic;html=1;rounded=0;edgeStyle=orthogonalEdgeStyle;exitX=0;exitY=0.5;exitDx=0;exitDy=0;" parent="1" source="DY8u-QS7H1mhDvQWpOhR-5" edge="1">
          <mxGeometry width="50" height="50" relative="1" as="geometry">
            <mxPoint x="-290" y="-950" as="sourcePoint" />
            <mxPoint x="-290" y="-834.5" as="targetPoint" />
            <Array as="points" />
          </mxGeometry>
        </mxCell>
        <mxCell id="2w-4S5Lkt5LEhi4wVCku-12" value="Сведения об учетных записях пользователях" style="text;html=1;align=center;verticalAlign=middle;whiteSpace=wrap;rounded=0;" parent="1" vertex="1">
          <mxGeometry x="-310" y="-904.5" width="70" height="30" as="geometry" />
        </mxCell>
        <mxCell id="2w-4S5Lkt5LEhi4wVCku-14" value="&lt;div&gt;D5 &amp;nbsp;&amp;nbsp;&amp;nbsp; Сценарии&amp;nbsp;&amp;nbsp;&lt;/div&gt;&lt;div&gt;&amp;nbsp;&amp;nbsp;&amp;nbsp;&amp;nbsp;&amp;nbsp;&amp;nbsp;&amp;nbsp;&amp;nbsp;&amp;nbsp; автоматизации&lt;/div&gt;" style="html=1;dashed=0;whiteSpace=wrap;shape=mxgraph.dfd.dataStoreID;align=left;spacingLeft=3;points=[[0,0],[0.5,0],[1,0],[0,0.5],[1,0.5],[0,1],[0.5,1],[1,1]];rotation=-90;" parent="1" vertex="1">
          <mxGeometry x="561" y="-1039.28" width="140" height="30" as="geometry" />
        </mxCell>
        <mxCell id="2w-4S5Lkt5LEhi4wVCku-15" value="" style="endArrow=classic;startArrow=classic;html=1;rounded=0;edgeStyle=orthogonalEdgeStyle;exitX=0.5;exitY=0;exitDx=0;exitDy=0;entryX=-0.009;entryY=0.656;entryDx=0;entryDy=0;entryPerimeter=0;" parent="1" source="i30u3QJIeOBKBD1oavNI-116" target="2w-4S5Lkt5LEhi4wVCku-14" edge="1">
          <mxGeometry width="50" height="50" relative="1" as="geometry">
            <mxPoint x="-823.4000000000001" y="-834.72" as="sourcePoint" />
            <mxPoint x="635" y="-950" as="targetPoint" />
            <Array as="points" />
          </mxGeometry>
        </mxCell>
        <mxCell id="2w-4S5Lkt5LEhi4wVCku-16" value="&lt;div&gt;Сведения о сценарииях автоматизации&lt;/div&gt;" style="text;html=1;align=center;verticalAlign=middle;whiteSpace=wrap;rounded=0;" parent="1" vertex="1">
          <mxGeometry x="601" y="-904.5" width="60" height="30" as="geometry" />
        </mxCell>
        <mxCell id="9ChwaLPMnaI0rvDz1kf8-2" value="&lt;div&gt;&lt;span style=&quot;background-color: rgb(255, 255, 255);&quot;&gt;D2 &amp;nbsp;&amp;nbsp; Дом&lt;/span&gt;&lt;/div&gt;" style="html=1;dashed=0;whiteSpace=wrap;shape=mxgraph.dfd.dataStoreID;align=left;spacingLeft=3;points=[[0,0],[0.5,0],[1,0],[0,0.5],[1,0.5],[0,1],[0.5,1],[1,1]];rotation=-90;" parent="1" vertex="1">
          <mxGeometry x="-130" y="-1039.28" width="140" height="30" as="geometry" />
        </mxCell>
        <mxCell id="9ChwaLPMnaI0rvDz1kf8-3" value="" style="endArrow=classic;startArrow=classic;html=1;rounded=0;entryX=0;entryY=0.5;entryDx=0;entryDy=0;exitX=0.667;exitY=0.01;exitDx=0;exitDy=0;exitPerimeter=0;" parent="1" source="i30u3QJIeOBKBD1oavNI-109" target="9ChwaLPMnaI0rvDz1kf8-2" edge="1">
          <mxGeometry width="50" height="50" relative="1" as="geometry">
            <mxPoint x="-61.69999999999982" y="-834.5" as="sourcePoint" />
            <mxPoint x="150" y="-964.28" as="targetPoint" />
          </mxGeometry>
        </mxCell>
        <mxCell id="9ChwaLPMnaI0rvDz1kf8-4" value="Сведения о доме" style="text;html=1;align=center;verticalAlign=middle;whiteSpace=wrap;rounded=0;" parent="1" vertex="1">
          <mxGeometry x="-95" y="-934.5" width="60" height="30" as="geometry" />
        </mxCell>
        <mxCell id="QGh1ckllcH9CSfY24ioH-2" value="&lt;div&gt;Форма ввода&lt;br&gt;&lt;/div&gt;Данные о комнатах" style="edgeStyle=orthogonalEdgeStyle;html=1;endArrow=open;endSize=12;verticalAlign=top;labelBackgroundColor=none;rounded=0;entryX=0.697;entryY=1.006;entryDx=0;entryDy=0;entryPerimeter=0;exitX=0.819;exitY=-0.017;exitDx=0;exitDy=0;exitPerimeter=0;" parent="1" source="a9Sl7O8uez9xCAdCzFx1-50" target="i30u3QJIeOBKBD1oavNI-113" edge="1">
          <mxGeometry x="0.7119" y="15" width="160" relative="1" as="geometry">
            <mxPoint x="-260" y="-510" as="sourcePoint" />
            <mxPoint x="269.8899999999999" y="-629.97" as="targetPoint" />
            <mxPoint as="offset" />
            <Array as="points">
              <mxPoint x="-275" y="-580" />
              <mxPoint x="165" y="-580" />
            </Array>
          </mxGeometry>
        </mxCell>
        <mxCell id="i30u3QJIeOBKBD1oavNI-109" value="2" style="swimlane;childLayout=stackLayout;horizontal=1;startSize=30;horizontalStack=0;rounded=1;fontSize=14;fontStyle=0;strokeWidth=1;resizeParent=0;resizeLast=1;shadow=0;dashed=0;align=center;fillColor=#FFFFFF;" parent="1" vertex="1">
          <mxGeometry x="-160" y="-834.5" width="150" height="110" as="geometry" />
        </mxCell>
        <mxCell id="i30u3QJIeOBKBD1oavNI-110" value="Управление &#xa;домом" style="align=center;strokeColor=none;fillColor=none;spacingLeft=4;fontSize=12;verticalAlign=middle;resizable=0;rotatable=0;part=1;" parent="i30u3QJIeOBKBD1oavNI-109" vertex="1">
          <mxGeometry y="30" width="150" height="80" as="geometry" />
        </mxCell>
        <mxCell id="i30u3QJIeOBKBD1oavNI-112" value="3" style="swimlane;childLayout=stackLayout;horizontal=1;startSize=30;horizontalStack=0;rounded=1;fontSize=14;fontStyle=0;strokeWidth=1;resizeParent=0;resizeLast=1;shadow=0;dashed=0;align=center;fillColor=#FFFFFF;" parent="1" vertex="1">
          <mxGeometry x="60" y="-834.5" width="150" height="110" as="geometry" />
        </mxCell>
        <mxCell id="i30u3QJIeOBKBD1oavNI-113" value="Управление &#xa;комнатой" style="align=center;strokeColor=none;fillColor=none;spacingLeft=4;fontSize=12;verticalAlign=middle;resizable=0;rotatable=0;part=1;" parent="i30u3QJIeOBKBD1oavNI-112" vertex="1">
          <mxGeometry y="30" width="150" height="80" as="geometry" />
        </mxCell>
        <mxCell id="i30u3QJIeOBKBD1oavNI-114" value="4" style="swimlane;childLayout=stackLayout;horizontal=1;startSize=30;horizontalStack=0;rounded=1;fontSize=14;fontStyle=0;strokeWidth=1;resizeParent=0;resizeLast=1;shadow=0;dashed=0;align=center;fillColor=#FFFFFF;" parent="1" vertex="1">
          <mxGeometry x="300" y="-834.5" width="150" height="110" as="geometry" />
        </mxCell>
        <mxCell id="i30u3QJIeOBKBD1oavNI-115" value="Управление &#xa;устройством" style="align=center;strokeColor=none;fillColor=none;spacingLeft=4;fontSize=12;verticalAlign=middle;resizable=0;rotatable=0;part=1;" parent="i30u3QJIeOBKBD1oavNI-114" vertex="1">
          <mxGeometry y="30" width="150" height="80" as="geometry" />
        </mxCell>
        <mxCell id="i30u3QJIeOBKBD1oavNI-116" value="5" style="swimlane;childLayout=stackLayout;horizontal=1;startSize=30;horizontalStack=0;rounded=1;fontSize=14;fontStyle=0;strokeWidth=1;resizeParent=0;resizeLast=1;shadow=0;dashed=0;align=center;fillColor=#FFFFFF;" parent="1" vertex="1">
          <mxGeometry x="560" y="-834.5" width="150" height="110" as="geometry" />
        </mxCell>
        <mxCell id="i30u3QJIeOBKBD1oavNI-117" value="Управление &#xa;сценарием &#xa;автоматизации" style="align=center;strokeColor=none;fillColor=none;spacingLeft=4;fontSize=12;verticalAlign=middle;resizable=0;rotatable=0;part=1;" parent="i30u3QJIeOBKBD1oavNI-116" vertex="1">
          <mxGeometry y="30" width="150" height="80" as="geometry" />
        </mxCell>
        <mxCell id="i30u3QJIeOBKBD1oavNI-120" value="&lt;div&gt;Форма вывода&lt;br&gt;&lt;/div&gt;Данные о доме" style="edgeStyle=orthogonalEdgeStyle;html=1;endArrow=open;endSize=12;verticalAlign=top;labelBackgroundColor=none;rounded=0;exitX=0.201;exitY=1.02;exitDx=0;exitDy=0;exitPerimeter=0;entryX=0.562;entryY=-0.017;entryDx=0;entryDy=0;entryPerimeter=0;" parent="1" target="a9Sl7O8uez9xCAdCzFx1-50" edge="1">
          <mxGeometry x="-0.4071" y="-20" width="160" relative="1" as="geometry">
            <mxPoint x="-143.8499999999999" y="-724.5" as="sourcePoint" />
            <mxPoint x="-280" y="-510" as="targetPoint" />
            <mxPoint as="offset" />
            <Array as="points">
              <mxPoint x="-144" y="-660" />
              <mxPoint x="-303" y="-660" />
            </Array>
          </mxGeometry>
        </mxCell>
        <mxCell id="i30u3QJIeOBKBD1oavNI-121" value="&lt;div&gt;Форма ввода&lt;br&gt;&lt;/div&gt;Данные о доме" style="edgeStyle=orthogonalEdgeStyle;html=1;endArrow=open;endSize=12;verticalAlign=top;labelBackgroundColor=none;rounded=0;entryX=0.387;entryY=1.015;entryDx=0;entryDy=0;entryPerimeter=0;" parent="1" edge="1">
          <mxGeometry x="-0.2131" y="20" width="160" relative="1" as="geometry">
            <mxPoint x="-290" y="-510" as="sourcePoint" />
            <mxPoint x="-121.97999999999982" y="-723.35" as="targetPoint" />
            <mxPoint as="offset" />
            <Array as="points">
              <mxPoint x="-290" y="-610" />
              <mxPoint x="-122" y="-610" />
            </Array>
          </mxGeometry>
        </mxCell>
        <mxCell id="i30u3QJIeOBKBD1oavNI-122" value="&lt;div&gt;Форма ввода&lt;br&gt;&lt;/div&gt;&lt;div&gt;Сведения об &lt;br&gt;&lt;/div&gt;&lt;div&gt;устройствах&lt;/div&gt;" style="edgeStyle=orthogonalEdgeStyle;html=1;endArrow=open;endSize=12;verticalAlign=top;labelBackgroundColor=none;rounded=0;entryX=0.544;entryY=0.98;entryDx=0;entryDy=0;entryPerimeter=0;" parent="1" edge="1">
          <mxGeometry x="0.0462" y="-10" width="160" relative="1" as="geometry">
            <mxPoint x="340.03" y="-568.4" as="sourcePoint" />
            <mxPoint x="340.6300000000001" y="-724.5" as="targetPoint" />
            <mxPoint as="offset" />
            <Array as="points">
              <mxPoint x="340.03" y="-618.4" />
            </Array>
          </mxGeometry>
        </mxCell>
        <mxCell id="i30u3QJIeOBKBD1oavNI-123" value="&lt;div&gt;Форма вывода&lt;br&gt;&lt;/div&gt;&lt;div&gt;Сведения о &lt;br&gt;&lt;/div&gt;&lt;div&gt;статусе устройства&lt;/div&gt;" style="edgeStyle=orthogonalEdgeStyle;html=1;endArrow=open;endSize=12;verticalAlign=top;labelBackgroundColor=none;rounded=0;exitX=0.066;exitY=1.006;exitDx=0;exitDy=0;exitPerimeter=0;entryX=0.913;entryY=-0.031;entryDx=0;entryDy=0;entryPerimeter=0;" parent="1" source="i30u3QJIeOBKBD1oavNI-115" target="a9Sl7O8uez9xCAdCzFx1-50" edge="1">
          <mxGeometry x="0.4064" y="-20" width="160" relative="1" as="geometry">
            <mxPoint x="290" y="-740" as="sourcePoint" />
            <mxPoint x="-280" y="-522" as="targetPoint" />
            <mxPoint as="offset" />
            <Array as="points">
              <mxPoint x="310" y="-697" />
              <mxPoint x="266" y="-697" />
              <mxPoint x="266" y="-550" />
              <mxPoint x="-265" y="-550" />
              <mxPoint x="-265" y="-512" />
            </Array>
          </mxGeometry>
        </mxCell>
      </root>
    </mxGraphModel>
  </diagram>
  <diagram name="№1 Нотация Crow&#39;s Foot" id="GEEx83-C-HKRiIT-YQLa">
    <mxGraphModel dx="1114" dy="1771" grid="1" gridSize="10" guides="1" tooltips="1" connect="1" arrows="1" fold="1" page="1" pageScale="1" pageWidth="827" pageHeight="1169" math="0" shadow="0">
      <root>
        <mxCell id="0" />
        <mxCell id="1" parent="0" />
        <mxCell id="JccsWRMxv8UP6R_iEfoV-1" value="Дом" style="swimlane;childLayout=stackLayout;horizontal=1;startSize=30;horizontalStack=0;rounded=1;fontSize=20;fontStyle=1;strokeWidth=2;resizeParent=0;resizeLast=1;shadow=0;dashed=0;align=center;labelBackgroundColor=#FFFFFF;labelBorderColor=none;" parent="1" vertex="1">
          <mxGeometry x="130" y="-970" width="230" height="340" as="geometry">
            <mxRectangle x="400" y="-960" width="100" height="40" as="alternateBounds" />
          </mxGeometry>
        </mxCell>
        <mxCell id="JccsWRMxv8UP6R_iEfoV-2" value="* Комната&#xa;   Название комнаты&#xa;   Тип комнаты   &#xa;   Иконка комнаты&#xa;   Устройство   &#xa;   Модель устройства&#xa;   Код идентификации устройства&#xa;   Название устройства&#xa;   Статус устройства&#xa;   Сценарий   &#xa;   Название сценария   &#xa;   Содержание сценария&#xa;" style="align=left;strokeColor=none;fillColor=none;spacingLeft=4;fontSize=12;verticalAlign=top;resizable=0;rotatable=0;part=1;labelBackgroundColor=#FFFFFF;labelBorderColor=none;" parent="JccsWRMxv8UP6R_iEfoV-1" vertex="1">
          <mxGeometry y="30" width="230" height="310" as="geometry" />
        </mxCell>
        <mxCell id="JccsWRMxv8UP6R_iEfoV-3" value="Пользователь" style="swimlane;childLayout=stackLayout;horizontal=1;startSize=30;horizontalStack=0;rounded=1;fontSize=20;fontStyle=1;strokeWidth=2;resizeParent=0;resizeLast=1;shadow=0;dashed=0;align=center;labelBackgroundColor=#FFFFFF;labelBorderColor=none;" parent="1" vertex="1">
          <mxGeometry x="570" y="-970" width="230" height="160" as="geometry">
            <mxRectangle x="400" y="-960" width="100" height="40" as="alternateBounds" />
          </mxGeometry>
        </mxCell>
        <mxCell id="JccsWRMxv8UP6R_iEfoV-4" value="* Пользователь&#xa;   Имя пользователя&#xa;   e-mail&#xa;   Пароль&#xa;&#xa; " style="align=left;strokeColor=none;fillColor=none;spacingLeft=4;fontSize=12;verticalAlign=top;resizable=0;rotatable=0;part=1;labelBackgroundColor=#FFFFFF;labelBorderColor=none;fontColor=#000000;" parent="JccsWRMxv8UP6R_iEfoV-3" vertex="1">
          <mxGeometry y="30" width="230" height="130" as="geometry" />
        </mxCell>
        <mxCell id="JccsWRMxv8UP6R_iEfoV-5" value="" style="edgeStyle=entityRelationEdgeStyle;fontSize=12;html=1;endArrow=ERoneToMany;startArrow=ERoneToMany;rounded=0;entryX=1.004;entryY=0.045;entryDx=0;entryDy=0;entryPerimeter=0;exitX=0;exitY=0.107;exitDx=0;exitDy=0;exitPerimeter=0;startFill=0;" parent="1" source="JccsWRMxv8UP6R_iEfoV-4" target="JccsWRMxv8UP6R_iEfoV-2" edge="1">
          <mxGeometry width="100" height="100" relative="1" as="geometry">
            <mxPoint x="500" y="-870" as="sourcePoint" />
            <mxPoint x="350" y="-920" as="targetPoint" />
            <Array as="points">
              <mxPoint x="480" y="-926" />
            </Array>
          </mxGeometry>
        </mxCell>
        <mxCell id="JccsWRMxv8UP6R_iEfoV-6" value="&lt;div&gt;&lt;br&gt;&lt;/div&gt;&lt;div&gt;&lt;br&gt;&lt;/div&gt;&lt;div&gt;Принадлежит&lt;/div&gt;" style="text;html=1;strokeColor=none;fillColor=#FFFFFF;spacing=5;spacingTop=-20;whiteSpace=wrap;overflow=hidden;rounded=0;" parent="1" vertex="1">
          <mxGeometry x="420" y="-970" width="90" height="50" as="geometry" />
        </mxCell>
      </root>
    </mxGraphModel>
  </diagram>
  <diagram name="№2. Нормализованная модель" id="AuMJ8U20OcHujh2dIPDq">
    <mxGraphModel dx="1941" dy="1771" grid="1" gridSize="10" guides="1" tooltips="1" connect="1" arrows="1" fold="1" page="1" pageScale="1" pageWidth="827" pageHeight="1169" math="0" shadow="0">
      <root>
        <mxCell id="0" />
        <mxCell id="1" parent="0" />
        <mxCell id="lBkHLa1dKn9pjrk6Zw4l-1" value="&lt;b style=&quot;color: rgb(0, 0, 0); font-family: Helvetica; font-size: 42px; font-style: normal; font-variant-ligatures: normal; font-variant-caps: normal; letter-spacing: normal; orphans: 2; text-align: center; text-indent: 0px; text-transform: none; widows: 2; word-spacing: 0px; -webkit-text-stroke-width: 0px; background-color: rgb(248, 249, 250); text-decoration-thickness: initial; text-decoration-style: initial; text-decoration-color: initial;&quot;&gt;Логическая ER-модель в 1 НФ&lt;/b&gt;" style="text;whiteSpace=wrap;html=1;fontSize=20;" parent="1" vertex="1">
          <mxGeometry x="-120" y="-1150" width="1080" height="80" as="geometry" />
        </mxCell>
        <mxCell id="lBkHLa1dKn9pjrk6Zw4l-2" value="&lt;b style=&quot;color: rgb(0, 0, 0); font-family: Helvetica; font-size: 42px; font-style: normal; font-variant-ligatures: normal; font-variant-caps: normal; letter-spacing: normal; orphans: 2; text-align: center; text-indent: 0px; text-transform: none; widows: 2; word-spacing: 0px; -webkit-text-stroke-width: 0px; background-color: rgb(248, 249, 250); text-decoration-thickness: initial; text-decoration-style: initial; text-decoration-color: initial;&quot;&gt;Логическая ER-модель в 2 НФ&lt;/b&gt;" style="text;whiteSpace=wrap;html=1;fontSize=20;" parent="1" vertex="1">
          <mxGeometry x="-130" y="130" width="1080" height="80" as="geometry" />
        </mxCell>
        <mxCell id="lBkHLa1dKn9pjrk6Zw4l-3" value="&lt;b style=&quot;color: rgb(0, 0, 0); font-family: Helvetica; font-size: 42px; font-style: normal; font-variant-ligatures: normal; font-variant-caps: normal; letter-spacing: normal; orphans: 2; text-align: center; text-indent: 0px; text-transform: none; widows: 2; word-spacing: 0px; -webkit-text-stroke-width: 0px; background-color: rgb(248, 249, 250); text-decoration-thickness: initial; text-decoration-style: initial; text-decoration-color: initial;&quot;&gt;Логическая ER-модель в 3 НФ&lt;/b&gt;" style="text;whiteSpace=wrap;html=1;fontSize=20;" parent="1" vertex="1">
          <mxGeometry x="-156" y="1340" width="1080" height="80" as="geometry" />
        </mxCell>
        <mxCell id="lBkHLa1dKn9pjrk6Zw4l-4" value="&lt;h1 style=&quot;font-size: 20px;&quot;&gt;&lt;font style=&quot;font-size: 20px;&quot;&gt;План нормализации&lt;/font&gt;&lt;/h1&gt;&lt;p style=&quot;font-size: 20px;&quot;&gt;1. Атрибуты &quot;Устройство&quot; и &quot;Сценарий&quot; выделены в отдельную сущность для устранения типа связи &quot;многие ко многим&quot;.&lt;/p&gt;&lt;p style=&quot;font-size: 20px;&quot;&gt;&lt;br&gt;&lt;/p&gt;" style="text;html=1;strokeColor=#d6b656;fillColor=#fff2cc;spacing=5;spacingTop=-20;whiteSpace=wrap;overflow=hidden;rounded=0;fontSize=20;" parent="1" vertex="1">
          <mxGeometry x="-120" y="-1095" width="370" height="185" as="geometry" />
        </mxCell>
        <mxCell id="lBkHLa1dKn9pjrk6Zw4l-5" value="&lt;h1 style=&quot;font-size: 20px;&quot;&gt;&lt;font style=&quot;font-size: 20px;&quot;&gt;План нормализации&lt;/font&gt;&lt;/h1&gt;&lt;p style=&quot;font-size: 20px;&quot;&gt;1. Проведен анализ зависимости атрибутов от первичного ключа. &lt;/p&gt;&lt;p style=&quot;font-size: 20px;&quot;&gt;2.&amp;nbsp; Устранён тип связи &quot;многие ко многим&quot; &lt;/p&gt;" style="text;html=1;strokeColor=#d6b656;fillColor=#fff2cc;spacing=5;spacingTop=-20;whiteSpace=wrap;overflow=hidden;rounded=0;fontSize=20;" parent="1" vertex="1">
          <mxGeometry x="-126" y="200" width="370" height="386" as="geometry" />
        </mxCell>
        <mxCell id="lBkHLa1dKn9pjrk6Zw4l-6" value="&lt;h1 style=&quot;font-size: 20px;&quot;&gt;&lt;font style=&quot;font-size: 20px;&quot;&gt;План нормализации&lt;/font&gt;&lt;/h1&gt;&lt;p style=&quot;font-size: 20px;&quot;&gt;1. Проведен анализ модели на наличие зависимости одного ключевого атрибута сущности от другого неключевого атрибута сущности.&lt;/p&gt;&lt;p style=&quot;font-size: 20px;&quot;&gt;2. В связи с тем, что все атрибуты сущности зависят от первичного ключа, доработка логической модели не проводилась.&lt;br&gt;&lt;/p&gt;" style="text;html=1;strokeColor=#d6b656;fillColor=#fff2cc;spacing=5;spacingTop=-20;whiteSpace=wrap;overflow=hidden;rounded=0;fontSize=20;" parent="1" vertex="1">
          <mxGeometry x="-160" y="1400" width="370" height="300" as="geometry" />
        </mxCell>
        <mxCell id="lBkHLa1dKn9pjrk6Zw4l-7" value="" style="endArrow=classic;html=1;rounded=0;fontSize=20;strokeWidth=10;strokeColor=#006600;" parent="1" edge="1">
          <mxGeometry width="50" height="50" relative="1" as="geometry">
            <mxPoint x="-160" y="-1095" as="sourcePoint" />
            <mxPoint x="-160" y="-485" as="targetPoint" />
          </mxGeometry>
        </mxCell>
        <mxCell id="lBkHLa1dKn9pjrk6Zw4l-8" value="" style="endArrow=classic;html=1;rounded=0;fontSize=20;strokeWidth=10;strokeColor=#006600;" parent="1" edge="1">
          <mxGeometry width="50" height="50" relative="1" as="geometry">
            <mxPoint x="-166" y="200" as="sourcePoint" />
            <mxPoint x="-166" y="810" as="targetPoint" />
          </mxGeometry>
        </mxCell>
        <mxCell id="lBkHLa1dKn9pjrk6Zw4l-9" value="Дом" style="swimlane;childLayout=stackLayout;horizontal=1;startSize=30;horizontalStack=0;rounded=1;fontSize=20;fontStyle=1;strokeWidth=2;resizeParent=0;resizeLast=1;shadow=0;dashed=0;align=center;labelBackgroundColor=#FFFFFF;labelBorderColor=none;" parent="1" vertex="1">
          <mxGeometry x="350" y="-1080" width="230" height="90" as="geometry">
            <mxRectangle x="400" y="-960" width="100" height="40" as="alternateBounds" />
          </mxGeometry>
        </mxCell>
        <mxCell id="lBkHLa1dKn9pjrk6Zw4l-10" value="* Название дома&#xa;      &#xa;    &#xa;&#xa;    &#xa;   &#xa;&#xa;&#xa;" style="align=left;strokeColor=none;fillColor=none;spacingLeft=4;fontSize=12;verticalAlign=top;resizable=0;rotatable=0;part=1;labelBackgroundColor=#FFFFFF;labelBorderColor=none;" parent="lBkHLa1dKn9pjrk6Zw4l-9" vertex="1">
          <mxGeometry y="30" width="230" height="60" as="geometry" />
        </mxCell>
        <mxCell id="lBkHLa1dKn9pjrk6Zw4l-11" value="Устройство" style="swimlane;childLayout=stackLayout;horizontal=1;startSize=30;horizontalStack=0;rounded=1;fontSize=20;fontStyle=1;strokeWidth=2;resizeParent=0;resizeLast=1;shadow=0;dashed=0;align=center;labelBackgroundColor=#FFFFFF;labelBorderColor=none;" parent="1" vertex="1">
          <mxGeometry x="350" y="-700" width="230" height="110" as="geometry">
            <mxRectangle x="400" y="-960" width="100" height="40" as="alternateBounds" />
          </mxGeometry>
        </mxCell>
        <mxCell id="lBkHLa1dKn9pjrk6Zw4l-12" value="* Код идентификации устройства&#xa;   Модель устройства      &#xa;   Статус устройства &#xa;   Название устройства&#xa;   &#xa;  " style="align=left;strokeColor=none;fillColor=none;spacingLeft=4;fontSize=12;verticalAlign=top;resizable=0;rotatable=0;part=1;labelBackgroundColor=#FFFFFF;labelBorderColor=none;fontColor=#000000;" parent="lBkHLa1dKn9pjrk6Zw4l-11" vertex="1">
          <mxGeometry y="30" width="230" height="80" as="geometry" />
        </mxCell>
        <mxCell id="lBkHLa1dKn9pjrk6Zw4l-13" value="Дом пользователя" style="swimlane;childLayout=stackLayout;horizontal=1;startSize=30;horizontalStack=0;rounded=1;fontSize=20;fontStyle=1;strokeWidth=2;resizeParent=0;resizeLast=1;shadow=0;dashed=0;align=center;labelBackgroundColor=#FFFFFF;labelBorderColor=none;" parent="1" vertex="1">
          <mxGeometry x="740" y="-1090" width="230" height="100" as="geometry">
            <mxRectangle x="400" y="-960" width="100" height="40" as="alternateBounds" />
          </mxGeometry>
        </mxCell>
        <mxCell id="lBkHLa1dKn9pjrk6Zw4l-14" value="&lt;div&gt;&amp;nbsp;* Название дома пользователя&lt;br&gt;&amp;nbsp;&amp;nbsp;&amp;nbsp; e-mail&lt;/div&gt;" style="text;whiteSpace=wrap;html=1;" parent="lBkHLa1dKn9pjrk6Zw4l-13" vertex="1">
          <mxGeometry y="30" width="230" height="70" as="geometry" />
        </mxCell>
        <mxCell id="lBkHLa1dKn9pjrk6Zw4l-15" value="" style="fontSize=12;html=1;endArrow=ERoneToMany;startArrow=ERmandOne;rounded=0;" parent="1" edge="1">
          <mxGeometry width="100" height="100" relative="1" as="geometry">
            <mxPoint x="456" y="-990" as="sourcePoint" />
            <mxPoint x="456" y="-890" as="targetPoint" />
          </mxGeometry>
        </mxCell>
        <mxCell id="lBkHLa1dKn9pjrk6Zw4l-16" value="&lt;div align=&quot;center&quot;&gt;&lt;br&gt;&lt;/div&gt;&lt;div align=&quot;center&quot;&gt;&lt;br&gt;&lt;/div&gt;&lt;div align=&quot;center&quot;&gt;Содержит&lt;br&gt;&lt;/div&gt;" style="text;html=1;strokeColor=none;fillColor=#FFFFFF;spacing=5;spacingTop=-20;whiteSpace=wrap;overflow=hidden;rounded=0;align=center;" parent="1" vertex="1">
          <mxGeometry x="420" y="-960" width="90" height="50" as="geometry" />
        </mxCell>
        <mxCell id="lBkHLa1dKn9pjrk6Zw4l-17" value="" style="edgeStyle=entityRelationEdgeStyle;fontSize=12;html=1;endArrow=ERmandOne;startArrow=ERmandOne;rounded=0;endFill=0;" parent="1" edge="1">
          <mxGeometry width="100" height="100" relative="1" as="geometry">
            <mxPoint x="580" y="-1030" as="sourcePoint" />
            <mxPoint x="740" y="-1030" as="targetPoint" />
          </mxGeometry>
        </mxCell>
        <mxCell id="lBkHLa1dKn9pjrk6Zw4l-18" value="&lt;div&gt;&lt;br&gt;&lt;/div&gt;&lt;div&gt;&lt;br&gt;&lt;/div&gt;&lt;div&gt;Принадлежит&lt;/div&gt;" style="text;html=1;strokeColor=none;fillColor=#FFFFFF;spacing=5;spacingTop=-20;whiteSpace=wrap;overflow=hidden;rounded=0;" parent="1" vertex="1">
          <mxGeometry x="620" y="-1070" width="90" height="50" as="geometry" />
        </mxCell>
        <mxCell id="lBkHLa1dKn9pjrk6Zw4l-19" value="Устройство в сценарии" style="swimlane;childLayout=stackLayout;horizontal=1;startSize=30;horizontalStack=0;rounded=1;fontSize=20;fontStyle=1;strokeWidth=2;resizeParent=0;resizeLast=1;shadow=0;dashed=0;align=center;labelBackgroundColor=#FFFFFF;labelBorderColor=none;" parent="1" vertex="1">
          <mxGeometry x="720" y="-690" width="250" height="90" as="geometry">
            <mxRectangle x="400" y="-960" width="100" height="40" as="alternateBounds" />
          </mxGeometry>
        </mxCell>
        <mxCell id="lBkHLa1dKn9pjrk6Zw4l-20" value="* Название устройства&#xa; &#xa;  &#xa;&#xa; " style="align=left;strokeColor=none;fillColor=none;spacingLeft=4;fontSize=12;verticalAlign=top;resizable=0;rotatable=0;part=1;labelBackgroundColor=#FFFFFF;labelBorderColor=none;fontColor=#000000;" parent="lBkHLa1dKn9pjrk6Zw4l-19" vertex="1">
          <mxGeometry y="30" width="250" height="60" as="geometry" />
        </mxCell>
        <mxCell id="vrm3CQ4HI3v00l10_h5a-1" value="" style="edgeStyle=entityRelationEdgeStyle;fontSize=12;html=1;endArrow=ERoneToMany;startArrow=ERmandOne;rounded=0;endFill=0;entryX=1;entryY=0.25;entryDx=0;entryDy=0;exitX=-0.001;exitY=0.178;exitDx=0;exitDy=0;exitPerimeter=0;" parent="1" source="lBkHLa1dKn9pjrk6Zw4l-20" target="lBkHLa1dKn9pjrk6Zw4l-12" edge="1">
          <mxGeometry width="100" height="100" relative="1" as="geometry">
            <mxPoint x="660" y="-610" as="sourcePoint" />
            <mxPoint x="779.08" y="-500.4699999999999" as="targetPoint" />
            <Array as="points">
              <mxPoint x="629.08" y="-380.4699999999999" />
            </Array>
          </mxGeometry>
        </mxCell>
        <mxCell id="lBkHLa1dKn9pjrk6Zw4l-22" value="&lt;div&gt;&lt;br&gt;&lt;/div&gt;&lt;div&gt;&lt;br&gt;&lt;/div&gt;&lt;div&gt;Принадлежит&lt;/div&gt;" style="text;html=1;strokeColor=none;fillColor=#FFFFFF;spacing=5;spacingTop=-20;whiteSpace=wrap;overflow=hidden;rounded=0;" parent="1" vertex="1">
          <mxGeometry x="610" y="-684" width="90" height="50" as="geometry" />
        </mxCell>
        <mxCell id="Vk4S9DXAyTu1Co-QS_r4-1" value="Пользователь" style="swimlane;childLayout=stackLayout;horizontal=1;startSize=30;horizontalStack=0;rounded=1;fontSize=20;fontStyle=1;strokeWidth=2;resizeParent=0;resizeLast=1;shadow=0;dashed=0;align=center;labelBackgroundColor=#FFFFFF;labelBorderColor=none;" parent="1" vertex="1">
          <mxGeometry x="1130" y="-1090" width="230" height="100" as="geometry">
            <mxRectangle x="400" y="-960" width="100" height="40" as="alternateBounds" />
          </mxGeometry>
        </mxCell>
        <mxCell id="Vk4S9DXAyTu1Co-QS_r4-2" value="&lt;div&gt;&amp;nbsp;* Имя пользователя&lt;br&gt;&amp;nbsp;&amp;nbsp;&amp;nbsp; e-mail&lt;br&gt;&amp;nbsp;&amp;nbsp;&amp;nbsp; пароль&lt;/div&gt;" style="text;whiteSpace=wrap;html=1;" parent="Vk4S9DXAyTu1Co-QS_r4-1" vertex="1">
          <mxGeometry y="30" width="230" height="70" as="geometry" />
        </mxCell>
        <mxCell id="Vk4S9DXAyTu1Co-QS_r4-4" value="" style="edgeStyle=entityRelationEdgeStyle;fontSize=12;html=1;endArrow=ERoneToMany;startArrow=ERmandOne;rounded=0;endFill=0;" parent="1" edge="1">
          <mxGeometry width="100" height="100" relative="1" as="geometry">
            <mxPoint x="970" y="-1030" as="sourcePoint" />
            <mxPoint x="1130" y="-1030" as="targetPoint" />
          </mxGeometry>
        </mxCell>
        <mxCell id="Vk4S9DXAyTu1Co-QS_r4-5" value="&lt;div&gt;&lt;br&gt;&lt;/div&gt;&lt;div&gt;&lt;br&gt;&lt;/div&gt;&lt;div&gt;Принадлежит&lt;/div&gt;" style="text;html=1;strokeColor=none;fillColor=#FFFFFF;spacing=5;spacingTop=-20;whiteSpace=wrap;overflow=hidden;rounded=0;" parent="1" vertex="1">
          <mxGeometry x="1010" y="-1070" width="90" height="50" as="geometry" />
        </mxCell>
        <mxCell id="Vk4S9DXAyTu1Co-QS_r4-6" value="Комната" style="swimlane;childLayout=stackLayout;horizontal=1;startSize=30;horizontalStack=0;rounded=1;fontSize=20;fontStyle=1;strokeWidth=2;resizeParent=0;resizeLast=1;shadow=0;dashed=0;align=center;labelBackgroundColor=#FFFFFF;labelBorderColor=none;" parent="1" vertex="1">
          <mxGeometry x="350" y="-890" width="230" height="90" as="geometry">
            <mxRectangle x="400" y="-960" width="100" height="40" as="alternateBounds" />
          </mxGeometry>
        </mxCell>
        <mxCell id="Vk4S9DXAyTu1Co-QS_r4-7" value="* Название комнаты&#xa;   &#xa;    &#xa;&#xa;    &#xa;   &#xa;&#xa;&#xa;" style="align=left;strokeColor=none;fillColor=none;spacingLeft=4;fontSize=12;verticalAlign=top;resizable=0;rotatable=0;part=1;labelBackgroundColor=#FFFFFF;labelBorderColor=none;" parent="Vk4S9DXAyTu1Co-QS_r4-6" vertex="1">
          <mxGeometry y="30" width="230" height="60" as="geometry" />
        </mxCell>
        <mxCell id="Vk4S9DXAyTu1Co-QS_r4-8" value="" style="fontSize=12;html=1;endArrow=ERoneToMany;startArrow=ERmandOne;rounded=0;" parent="1" edge="1">
          <mxGeometry width="100" height="100" relative="1" as="geometry">
            <mxPoint x="450" y="-800" as="sourcePoint" />
            <mxPoint x="450" y="-700" as="targetPoint" />
          </mxGeometry>
        </mxCell>
        <mxCell id="Vk4S9DXAyTu1Co-QS_r4-9" value="&lt;div align=&quot;center&quot;&gt;&lt;br&gt;&lt;/div&gt;&lt;div align=&quot;center&quot;&gt;&lt;br&gt;&lt;/div&gt;&lt;div align=&quot;center&quot;&gt;Содержит&lt;br&gt;&lt;/div&gt;" style="text;html=1;strokeColor=none;fillColor=#FFFFFF;spacing=5;spacingTop=-20;whiteSpace=wrap;overflow=hidden;rounded=0;align=center;" parent="1" vertex="1">
          <mxGeometry x="414" y="-770" width="90" height="50" as="geometry" />
        </mxCell>
        <mxCell id="Vk4S9DXAyTu1Co-QS_r4-10" value="Свойства комнаты" style="swimlane;childLayout=stackLayout;horizontal=1;startSize=30;horizontalStack=0;rounded=1;fontSize=20;fontStyle=1;strokeWidth=2;resizeParent=0;resizeLast=1;shadow=0;dashed=0;align=center;labelBackgroundColor=#FFFFFF;labelBorderColor=none;" parent="1" vertex="1">
          <mxGeometry x="720" y="-890" width="230" height="90" as="geometry">
            <mxRectangle x="400" y="-960" width="100" height="40" as="alternateBounds" />
          </mxGeometry>
        </mxCell>
        <mxCell id="Vk4S9DXAyTu1Co-QS_r4-11" value="* Тип комнаты&#xa;   Иконка комнаты   &#xa;    &#xa;&#xa;    &#xa;   &#xa;&#xa;&#xa;" style="align=left;strokeColor=none;fillColor=none;spacingLeft=4;fontSize=12;verticalAlign=top;resizable=0;rotatable=0;part=1;labelBackgroundColor=#FFFFFF;labelBorderColor=none;" parent="Vk4S9DXAyTu1Co-QS_r4-10" vertex="1">
          <mxGeometry y="30" width="230" height="60" as="geometry" />
        </mxCell>
        <mxCell id="Vk4S9DXAyTu1Co-QS_r4-12" value="" style="edgeStyle=entityRelationEdgeStyle;fontSize=12;html=1;endArrow=ERoneToMany;startArrow=ERmandOne;rounded=0;endFill=0;entryX=1;entryY=0.5;entryDx=0;entryDy=0;exitX=0;exitY=0.5;exitDx=0;exitDy=0;" parent="1" source="Vk4S9DXAyTu1Co-QS_r4-11" target="Vk4S9DXAyTu1Co-QS_r4-7" edge="1">
          <mxGeometry width="100" height="100" relative="1" as="geometry">
            <mxPoint x="660" y="-730" as="sourcePoint" />
            <mxPoint x="719" y="-821.5899999999999" as="targetPoint" />
            <Array as="points">
              <mxPoint x="569" y="-701.5899999999999" />
            </Array>
          </mxGeometry>
        </mxCell>
        <mxCell id="Vk4S9DXAyTu1Co-QS_r4-13" value="&lt;div&gt;&lt;br&gt;&lt;/div&gt;&lt;div&gt;&lt;br&gt;&lt;/div&gt;&lt;div&gt;Принадлежит&lt;/div&gt;" style="text;html=1;strokeColor=none;fillColor=#FFFFFF;spacing=5;spacingTop=-20;whiteSpace=wrap;overflow=hidden;rounded=0;" parent="1" vertex="1">
          <mxGeometry x="609" y="-860" width="90" height="50" as="geometry" />
        </mxCell>
        <mxCell id="Vk4S9DXAyTu1Co-QS_r4-14" value="Свойства устройства" style="swimlane;childLayout=stackLayout;horizontal=1;startSize=30;horizontalStack=0;rounded=1;fontSize=20;fontStyle=1;strokeWidth=2;resizeParent=0;resizeLast=1;shadow=0;dashed=0;align=center;labelBackgroundColor=#FFFFFF;labelBorderColor=none;" parent="1" vertex="1">
          <mxGeometry x="350" y="-490" width="230" height="90" as="geometry">
            <mxRectangle x="400" y="-960" width="100" height="40" as="alternateBounds" />
          </mxGeometry>
        </mxCell>
        <mxCell id="Vk4S9DXAyTu1Co-QS_r4-15" value="* Тип устройства&#xa;   Иконка устройства&#xa;" style="align=left;strokeColor=none;fillColor=none;spacingLeft=4;fontSize=12;verticalAlign=top;resizable=0;rotatable=0;part=1;labelBackgroundColor=#FFFFFF;labelBorderColor=none;" parent="Vk4S9DXAyTu1Co-QS_r4-14" vertex="1">
          <mxGeometry y="30" width="230" height="60" as="geometry" />
        </mxCell>
        <mxCell id="Vk4S9DXAyTu1Co-QS_r4-16" value="" style="fontSize=12;html=1;endArrow=ERoneToMany;startArrow=ERmandOne;rounded=0;entryX=0.413;entryY=1.025;entryDx=0;entryDy=0;entryPerimeter=0;exitX=0.417;exitY=0.011;exitDx=0;exitDy=0;exitPerimeter=0;" parent="1" edge="1">
          <mxGeometry width="100" height="100" relative="1" as="geometry">
            <mxPoint x="445.41999999999985" y="-491.01" as="sourcePoint" />
            <mxPoint x="444.4999999999998" y="-590" as="targetPoint" />
          </mxGeometry>
        </mxCell>
        <mxCell id="Vk4S9DXAyTu1Co-QS_r4-19" value="&lt;div&gt;&lt;br&gt;&lt;/div&gt;&lt;div&gt;&lt;br&gt;&lt;/div&gt;&lt;div&gt;Принадлежит&lt;/div&gt;" style="text;html=1;strokeColor=none;fillColor=#FFFFFF;spacing=5;spacingTop=-20;whiteSpace=wrap;overflow=hidden;rounded=0;" parent="1" vertex="1">
          <mxGeometry x="414" y="-570" width="90" height="50" as="geometry" />
        </mxCell>
        <mxCell id="Vk4S9DXAyTu1Co-QS_r4-20" value="Сценарий" style="swimlane;childLayout=stackLayout;horizontal=1;startSize=30;horizontalStack=0;rounded=1;fontSize=20;fontStyle=1;strokeWidth=2;resizeParent=0;resizeLast=1;shadow=0;dashed=0;align=center;labelBackgroundColor=#FFFFFF;labelBorderColor=none;" parent="1" vertex="1">
          <mxGeometry x="1110" y="-690" width="230" height="110" as="geometry">
            <mxRectangle x="400" y="-960" width="100" height="40" as="alternateBounds" />
          </mxGeometry>
        </mxCell>
        <mxCell id="Vk4S9DXAyTu1Co-QS_r4-21" value="* Название сценария&#xa;   Время начала сценария&#xa;   Время завершения сценария&#xa;   Статус устройства&#xa;  &#xa;&#xa; " style="align=left;strokeColor=none;fillColor=none;spacingLeft=4;fontSize=12;verticalAlign=top;resizable=0;rotatable=0;part=1;labelBackgroundColor=#FFFFFF;labelBorderColor=none;fontColor=#000000;" parent="Vk4S9DXAyTu1Co-QS_r4-20" vertex="1">
          <mxGeometry y="30" width="230" height="80" as="geometry" />
        </mxCell>
        <mxCell id="Vk4S9DXAyTu1Co-QS_r4-22" value="" style="edgeStyle=entityRelationEdgeStyle;fontSize=12;html=1;endArrow=ERoneToMany;startArrow=ERmandOne;rounded=0;endFill=0;exitX=1.004;exitY=0.186;exitDx=0;exitDy=0;exitPerimeter=0;" parent="1" edge="1">
          <mxGeometry width="100" height="100" relative="1" as="geometry">
            <mxPoint x="970" y="-646" as="sourcePoint" />
            <mxPoint x="1109" y="-645.5899999999999" as="targetPoint" />
            <Array as="points">
              <mxPoint x="959" y="-525.5899999999999" />
            </Array>
          </mxGeometry>
        </mxCell>
        <mxCell id="Vk4S9DXAyTu1Co-QS_r4-23" value="&lt;div&gt;&lt;br&gt;&lt;/div&gt;&lt;div&gt;&lt;br&gt;&lt;/div&gt;&lt;div&gt;Принадлежит&lt;/div&gt;" style="text;html=1;strokeColor=none;fillColor=#FFFFFF;spacing=5;spacingTop=-20;whiteSpace=wrap;overflow=hidden;rounded=0;" parent="1" vertex="1">
          <mxGeometry x="999" y="-684" width="90" height="50" as="geometry" />
        </mxCell>
        <mxCell id="Vk4S9DXAyTu1Co-QS_r4-24" value="День недели в сценарии" style="swimlane;childLayout=stackLayout;horizontal=1;startSize=30;horizontalStack=0;rounded=1;fontSize=20;fontStyle=1;strokeWidth=2;resizeParent=0;resizeLast=1;shadow=0;dashed=0;align=center;labelBackgroundColor=#FFFFFF;labelBorderColor=none;" parent="1" vertex="1">
          <mxGeometry x="1100" y="-480" width="250" height="90" as="geometry">
            <mxRectangle x="400" y="-960" width="100" height="40" as="alternateBounds" />
          </mxGeometry>
        </mxCell>
        <mxCell id="Vk4S9DXAyTu1Co-QS_r4-25" value="* Название дня недели в сценарии&#xa; " style="align=left;strokeColor=none;fillColor=none;spacingLeft=4;fontSize=12;verticalAlign=top;resizable=0;rotatable=0;part=1;labelBackgroundColor=#FFFFFF;labelBorderColor=none;fontColor=#000000;" parent="Vk4S9DXAyTu1Co-QS_r4-24" vertex="1">
          <mxGeometry y="30" width="250" height="60" as="geometry" />
        </mxCell>
        <mxCell id="Vk4S9DXAyTu1Co-QS_r4-27" value="День недели" style="swimlane;childLayout=stackLayout;horizontal=1;startSize=30;horizontalStack=0;rounded=1;fontSize=20;fontStyle=1;strokeWidth=2;resizeParent=0;resizeLast=1;shadow=0;dashed=0;align=center;labelBackgroundColor=#FFFFFF;labelBorderColor=none;" parent="1" vertex="1">
          <mxGeometry x="1100" y="-290" width="250" height="90" as="geometry">
            <mxRectangle x="400" y="-960" width="100" height="40" as="alternateBounds" />
          </mxGeometry>
        </mxCell>
        <mxCell id="Vk4S9DXAyTu1Co-QS_r4-28" value="* Название дня недели &#xa; " style="align=left;strokeColor=none;fillColor=none;spacingLeft=4;fontSize=12;verticalAlign=top;resizable=0;rotatable=0;part=1;labelBackgroundColor=#FFFFFF;labelBorderColor=none;fontColor=#000000;" parent="Vk4S9DXAyTu1Co-QS_r4-27" vertex="1">
          <mxGeometry y="30" width="250" height="60" as="geometry" />
        </mxCell>
        <mxCell id="Vk4S9DXAyTu1Co-QS_r4-31" value="" style="fontSize=12;html=1;endArrow=ERzeroToMany;startArrow=ERmandOne;rounded=0;endFill=0;entryX=0.464;entryY=0.983;entryDx=0;entryDy=0;entryPerimeter=0;exitX=0.464;exitY=-0.022;exitDx=0;exitDy=0;exitPerimeter=0;" parent="1" source="Vk4S9DXAyTu1Co-QS_r4-27" target="Vk4S9DXAyTu1Co-QS_r4-25" edge="1">
          <mxGeometry width="100" height="100" relative="1" as="geometry">
            <mxPoint x="969" y="-390" as="sourcePoint" />
            <mxPoint x="969" y="-290" as="targetPoint" />
          </mxGeometry>
        </mxCell>
        <mxCell id="91UpMNksOipdPs1jYjbq-2" value="" style="fontSize=12;html=1;endArrow=ERzeroToMany;startArrow=ERmandOne;rounded=0;endFill=0;" parent="1" edge="1">
          <mxGeometry width="100" height="100" relative="1" as="geometry">
            <mxPoint x="1210" y="-580" as="sourcePoint" />
            <mxPoint x="1210" y="-480" as="targetPoint" />
          </mxGeometry>
        </mxCell>
        <mxCell id="Vk4S9DXAyTu1Co-QS_r4-30" value="&lt;div&gt;&lt;br&gt;&lt;/div&gt;&lt;div&gt;&lt;br&gt;&lt;/div&gt;&lt;div&gt;Принадлежит&lt;/div&gt;" style="text;html=1;strokeColor=none;fillColor=#FFFFFF;spacing=5;spacingTop=-20;whiteSpace=wrap;overflow=hidden;rounded=0;" parent="1" vertex="1">
          <mxGeometry x="1180" y="-360" width="90" height="50" as="geometry" />
        </mxCell>
        <mxCell id="Vk4S9DXAyTu1Co-QS_r4-32" value="&lt;div&gt;&lt;br&gt;&lt;/div&gt;&lt;div&gt;&lt;br&gt;&lt;/div&gt;&lt;div&gt;Принадлежит&lt;/div&gt;" style="text;html=1;strokeColor=none;fillColor=#FFFFFF;spacing=5;spacingTop=-20;whiteSpace=wrap;overflow=hidden;rounded=0;" parent="1" vertex="1">
          <mxGeometry x="1170" y="-550" width="90" height="50" as="geometry" />
        </mxCell>
        <mxCell id="91UpMNksOipdPs1jYjbq-85" value="Дом" style="swimlane;childLayout=stackLayout;horizontal=1;startSize=30;horizontalStack=0;rounded=1;fontSize=20;fontStyle=1;strokeWidth=2;resizeParent=0;resizeLast=1;shadow=0;dashed=0;align=center;labelBackgroundColor=#FFFFFF;labelBorderColor=none;" parent="1" vertex="1">
          <mxGeometry x="340" y="220" width="230" height="90" as="geometry">
            <mxRectangle x="400" y="-960" width="100" height="40" as="alternateBounds" />
          </mxGeometry>
        </mxCell>
        <mxCell id="91UpMNksOipdPs1jYjbq-86" value="* Название дома&#xa;      &#xa;    &#xa;&#xa;    &#xa;   &#xa;&#xa;&#xa;" style="align=left;strokeColor=none;fillColor=none;spacingLeft=4;fontSize=12;verticalAlign=top;resizable=0;rotatable=0;part=1;labelBackgroundColor=#FFFFFF;labelBorderColor=none;" parent="91UpMNksOipdPs1jYjbq-85" vertex="1">
          <mxGeometry y="30" width="230" height="60" as="geometry" />
        </mxCell>
        <mxCell id="91UpMNksOipdPs1jYjbq-87" value="Устройство" style="swimlane;childLayout=stackLayout;horizontal=1;startSize=30;horizontalStack=0;rounded=1;fontSize=20;fontStyle=1;strokeWidth=2;resizeParent=0;resizeLast=1;shadow=0;dashed=0;align=center;labelBackgroundColor=#FFFFFF;labelBorderColor=none;" parent="1" vertex="1">
          <mxGeometry x="340" y="600" width="230" height="110" as="geometry">
            <mxRectangle x="400" y="-960" width="100" height="40" as="alternateBounds" />
          </mxGeometry>
        </mxCell>
        <mxCell id="91UpMNksOipdPs1jYjbq-88" value="* Код идентификации устройства&#xa;   Модель устройства      &#xa;   Статус устройства &#xa;   Название устройства&#xa;   &#xa;  " style="align=left;strokeColor=none;fillColor=none;spacingLeft=4;fontSize=12;verticalAlign=top;resizable=0;rotatable=0;part=1;labelBackgroundColor=#FFFFFF;labelBorderColor=none;fontColor=#000000;" parent="91UpMNksOipdPs1jYjbq-87" vertex="1">
          <mxGeometry y="30" width="230" height="80" as="geometry" />
        </mxCell>
        <mxCell id="91UpMNksOipdPs1jYjbq-89" value="Дом пользователя" style="swimlane;childLayout=stackLayout;horizontal=1;startSize=30;horizontalStack=0;rounded=1;fontSize=20;fontStyle=1;strokeWidth=2;resizeParent=0;resizeLast=1;shadow=0;dashed=0;align=center;labelBackgroundColor=#FFFFFF;labelBorderColor=none;" parent="1" vertex="1">
          <mxGeometry x="730" y="210" width="230" height="100" as="geometry">
            <mxRectangle x="400" y="-960" width="100" height="40" as="alternateBounds" />
          </mxGeometry>
        </mxCell>
        <mxCell id="91UpMNksOipdPs1jYjbq-90" value="&lt;div&gt;&amp;nbsp;* Название дома пользователя&lt;br&gt;&amp;nbsp;&amp;nbsp;&amp;nbsp; e-mail&lt;/div&gt;" style="text;whiteSpace=wrap;html=1;" parent="91UpMNksOipdPs1jYjbq-89" vertex="1">
          <mxGeometry y="30" width="230" height="70" as="geometry" />
        </mxCell>
        <mxCell id="91UpMNksOipdPs1jYjbq-91" value="" style="fontSize=12;html=1;endArrow=ERoneToMany;startArrow=ERmandOne;rounded=0;" parent="1" edge="1">
          <mxGeometry width="100" height="100" relative="1" as="geometry">
            <mxPoint x="446" y="310" as="sourcePoint" />
            <mxPoint x="446" y="410" as="targetPoint" />
          </mxGeometry>
        </mxCell>
        <mxCell id="91UpMNksOipdPs1jYjbq-92" value="&lt;div align=&quot;center&quot;&gt;&lt;br&gt;&lt;/div&gt;&lt;div align=&quot;center&quot;&gt;&lt;br&gt;&lt;/div&gt;&lt;div align=&quot;center&quot;&gt;Содержит&lt;br&gt;&lt;/div&gt;" style="text;html=1;strokeColor=none;fillColor=#FFFFFF;spacing=5;spacingTop=-20;whiteSpace=wrap;overflow=hidden;rounded=0;align=center;" parent="1" vertex="1">
          <mxGeometry x="410" y="340" width="90" height="50" as="geometry" />
        </mxCell>
        <mxCell id="91UpMNksOipdPs1jYjbq-93" value="" style="edgeStyle=entityRelationEdgeStyle;fontSize=12;html=1;endArrow=ERmandOne;startArrow=ERmandOne;rounded=0;endFill=0;" parent="1" edge="1">
          <mxGeometry width="100" height="100" relative="1" as="geometry">
            <mxPoint x="570" y="270" as="sourcePoint" />
            <mxPoint x="730" y="270" as="targetPoint" />
          </mxGeometry>
        </mxCell>
        <mxCell id="91UpMNksOipdPs1jYjbq-94" value="&lt;div&gt;&lt;br&gt;&lt;/div&gt;&lt;div&gt;&lt;br&gt;&lt;/div&gt;&lt;div&gt;Принадлежит&lt;/div&gt;" style="text;html=1;strokeColor=none;fillColor=#FFFFFF;spacing=5;spacingTop=-20;whiteSpace=wrap;overflow=hidden;rounded=0;" parent="1" vertex="1">
          <mxGeometry x="610" y="230" width="90" height="50" as="geometry" />
        </mxCell>
        <mxCell id="91UpMNksOipdPs1jYjbq-95" value="Устройство в сценарии" style="swimlane;childLayout=stackLayout;horizontal=1;startSize=30;horizontalStack=0;rounded=1;fontSize=20;fontStyle=1;strokeWidth=2;resizeParent=0;resizeLast=1;shadow=0;dashed=0;align=center;labelBackgroundColor=#FFFFFF;labelBorderColor=none;" parent="1" vertex="1">
          <mxGeometry x="710" y="610" width="250" height="90" as="geometry">
            <mxRectangle x="400" y="-960" width="100" height="40" as="alternateBounds" />
          </mxGeometry>
        </mxCell>
        <mxCell id="91UpMNksOipdPs1jYjbq-96" value="* Название устройства&#xa; &#xa;  &#xa;&#xa; " style="align=left;strokeColor=none;fillColor=none;spacingLeft=4;fontSize=12;verticalAlign=top;resizable=0;rotatable=0;part=1;labelBackgroundColor=#FFFFFF;labelBorderColor=none;fontColor=#000000;" parent="91UpMNksOipdPs1jYjbq-95" vertex="1">
          <mxGeometry y="30" width="250" height="60" as="geometry" />
        </mxCell>
        <mxCell id="91UpMNksOipdPs1jYjbq-97" value="" style="edgeStyle=entityRelationEdgeStyle;fontSize=12;html=1;endArrow=ERoneToMany;startArrow=ERmandOne;rounded=0;endFill=0;entryX=1;entryY=0.25;entryDx=0;entryDy=0;exitX=-0.001;exitY=0.178;exitDx=0;exitDy=0;exitPerimeter=0;" parent="1" source="91UpMNksOipdPs1jYjbq-96" target="91UpMNksOipdPs1jYjbq-88" edge="1">
          <mxGeometry width="100" height="100" relative="1" as="geometry">
            <mxPoint x="650" y="690" as="sourcePoint" />
            <mxPoint x="769.08" y="799.5300000000001" as="targetPoint" />
            <Array as="points">
              <mxPoint x="619.08" y="919.5300000000001" />
            </Array>
          </mxGeometry>
        </mxCell>
        <mxCell id="91UpMNksOipdPs1jYjbq-98" value="&lt;div&gt;&lt;br&gt;&lt;/div&gt;&lt;div&gt;&lt;br&gt;&lt;/div&gt;&lt;div&gt;Принадлежит&lt;/div&gt;" style="text;html=1;strokeColor=none;fillColor=#FFFFFF;spacing=5;spacingTop=-20;whiteSpace=wrap;overflow=hidden;rounded=0;" parent="1" vertex="1">
          <mxGeometry x="600" y="616" width="90" height="50" as="geometry" />
        </mxCell>
        <mxCell id="91UpMNksOipdPs1jYjbq-99" value="Пользователь" style="swimlane;childLayout=stackLayout;horizontal=1;startSize=30;horizontalStack=0;rounded=1;fontSize=20;fontStyle=1;strokeWidth=2;resizeParent=0;resizeLast=1;shadow=0;dashed=0;align=center;labelBackgroundColor=#FFFFFF;labelBorderColor=none;" parent="1" vertex="1">
          <mxGeometry x="1120" y="210" width="230" height="100" as="geometry">
            <mxRectangle x="400" y="-960" width="100" height="40" as="alternateBounds" />
          </mxGeometry>
        </mxCell>
        <mxCell id="91UpMNksOipdPs1jYjbq-100" value="&lt;div&gt;&amp;nbsp;* Имя пользователя&lt;br&gt;&amp;nbsp;&amp;nbsp;&amp;nbsp; e-mail&lt;br&gt;&amp;nbsp;&amp;nbsp;&amp;nbsp; пароль&lt;/div&gt;" style="text;whiteSpace=wrap;html=1;" parent="91UpMNksOipdPs1jYjbq-99" vertex="1">
          <mxGeometry y="30" width="230" height="70" as="geometry" />
        </mxCell>
        <mxCell id="91UpMNksOipdPs1jYjbq-101" value="" style="edgeStyle=entityRelationEdgeStyle;fontSize=12;html=1;endArrow=ERoneToMany;startArrow=ERmandOne;rounded=0;endFill=0;" parent="1" edge="1">
          <mxGeometry width="100" height="100" relative="1" as="geometry">
            <mxPoint x="960" y="270" as="sourcePoint" />
            <mxPoint x="1120" y="270" as="targetPoint" />
          </mxGeometry>
        </mxCell>
        <mxCell id="91UpMNksOipdPs1jYjbq-102" value="&lt;div&gt;&lt;br&gt;&lt;/div&gt;&lt;div&gt;&lt;br&gt;&lt;/div&gt;&lt;div&gt;Принадлежит&lt;/div&gt;" style="text;html=1;strokeColor=none;fillColor=#FFFFFF;spacing=5;spacingTop=-20;whiteSpace=wrap;overflow=hidden;rounded=0;" parent="1" vertex="1">
          <mxGeometry x="1000" y="230" width="90" height="50" as="geometry" />
        </mxCell>
        <mxCell id="91UpMNksOipdPs1jYjbq-103" value="Комната" style="swimlane;childLayout=stackLayout;horizontal=1;startSize=30;horizontalStack=0;rounded=1;fontSize=20;fontStyle=1;strokeWidth=2;resizeParent=0;resizeLast=1;shadow=0;dashed=0;align=center;labelBackgroundColor=#FFFFFF;labelBorderColor=none;" parent="1" vertex="1">
          <mxGeometry x="340" y="410" width="230" height="90" as="geometry">
            <mxRectangle x="400" y="-960" width="100" height="40" as="alternateBounds" />
          </mxGeometry>
        </mxCell>
        <mxCell id="91UpMNksOipdPs1jYjbq-104" value="* Название комнаты&#xa;   &#xa;    &#xa;&#xa;    &#xa;   &#xa;&#xa;&#xa;" style="align=left;strokeColor=none;fillColor=none;spacingLeft=4;fontSize=12;verticalAlign=top;resizable=0;rotatable=0;part=1;labelBackgroundColor=#FFFFFF;labelBorderColor=none;" parent="91UpMNksOipdPs1jYjbq-103" vertex="1">
          <mxGeometry y="30" width="230" height="60" as="geometry" />
        </mxCell>
        <mxCell id="91UpMNksOipdPs1jYjbq-105" value="" style="fontSize=12;html=1;endArrow=ERoneToMany;startArrow=ERmandOne;rounded=0;" parent="1" edge="1">
          <mxGeometry width="100" height="100" relative="1" as="geometry">
            <mxPoint x="440" y="500" as="sourcePoint" />
            <mxPoint x="440" y="600" as="targetPoint" />
          </mxGeometry>
        </mxCell>
        <mxCell id="91UpMNksOipdPs1jYjbq-106" value="&lt;div align=&quot;center&quot;&gt;&lt;br&gt;&lt;/div&gt;&lt;div align=&quot;center&quot;&gt;&lt;br&gt;&lt;/div&gt;&lt;div align=&quot;center&quot;&gt;Содержит&lt;br&gt;&lt;/div&gt;" style="text;html=1;strokeColor=none;fillColor=#FFFFFF;spacing=5;spacingTop=-20;whiteSpace=wrap;overflow=hidden;rounded=0;align=center;" parent="1" vertex="1">
          <mxGeometry x="404" y="530" width="90" height="50" as="geometry" />
        </mxCell>
        <mxCell id="91UpMNksOipdPs1jYjbq-107" value="Свойства комнаты" style="swimlane;childLayout=stackLayout;horizontal=1;startSize=30;horizontalStack=0;rounded=1;fontSize=20;fontStyle=1;strokeWidth=2;resizeParent=0;resizeLast=1;shadow=0;dashed=0;align=center;labelBackgroundColor=#FFFFFF;labelBorderColor=none;" parent="1" vertex="1">
          <mxGeometry x="710" y="410" width="230" height="90" as="geometry">
            <mxRectangle x="400" y="-960" width="100" height="40" as="alternateBounds" />
          </mxGeometry>
        </mxCell>
        <mxCell id="91UpMNksOipdPs1jYjbq-108" value="* Тип комнаты&#xa;   Иконка комнаты   &#xa;    &#xa;&#xa;    &#xa;   &#xa;&#xa;&#xa;" style="align=left;strokeColor=none;fillColor=none;spacingLeft=4;fontSize=12;verticalAlign=top;resizable=0;rotatable=0;part=1;labelBackgroundColor=#FFFFFF;labelBorderColor=none;" parent="91UpMNksOipdPs1jYjbq-107" vertex="1">
          <mxGeometry y="30" width="230" height="60" as="geometry" />
        </mxCell>
        <mxCell id="91UpMNksOipdPs1jYjbq-109" value="" style="edgeStyle=entityRelationEdgeStyle;fontSize=12;html=1;endArrow=ERoneToMany;startArrow=ERmandOne;rounded=0;endFill=0;entryX=1;entryY=0.5;entryDx=0;entryDy=0;exitX=0;exitY=0.5;exitDx=0;exitDy=0;" parent="1" source="91UpMNksOipdPs1jYjbq-108" target="91UpMNksOipdPs1jYjbq-104" edge="1">
          <mxGeometry width="100" height="100" relative="1" as="geometry">
            <mxPoint x="650" y="570" as="sourcePoint" />
            <mxPoint x="709" y="478.4100000000001" as="targetPoint" />
            <Array as="points">
              <mxPoint x="559" y="598.4100000000001" />
            </Array>
          </mxGeometry>
        </mxCell>
        <mxCell id="91UpMNksOipdPs1jYjbq-110" value="&lt;div&gt;&lt;br&gt;&lt;/div&gt;&lt;div&gt;&lt;br&gt;&lt;/div&gt;&lt;div&gt;Принадлежит&lt;/div&gt;" style="text;html=1;strokeColor=none;fillColor=#FFFFFF;spacing=5;spacingTop=-20;whiteSpace=wrap;overflow=hidden;rounded=0;" parent="1" vertex="1">
          <mxGeometry x="599" y="440" width="90" height="50" as="geometry" />
        </mxCell>
        <mxCell id="91UpMNksOipdPs1jYjbq-111" value="Свойства устройства" style="swimlane;childLayout=stackLayout;horizontal=1;startSize=30;horizontalStack=0;rounded=1;fontSize=20;fontStyle=1;strokeWidth=2;resizeParent=0;resizeLast=1;shadow=0;dashed=0;align=center;labelBackgroundColor=#FFFFFF;labelBorderColor=none;" parent="1" vertex="1">
          <mxGeometry x="340" y="810" width="230" height="90" as="geometry">
            <mxRectangle x="400" y="-960" width="100" height="40" as="alternateBounds" />
          </mxGeometry>
        </mxCell>
        <mxCell id="91UpMNksOipdPs1jYjbq-112" value="* Тип устройства&#xa;   Иконка устройства&#xa;" style="align=left;strokeColor=none;fillColor=none;spacingLeft=4;fontSize=12;verticalAlign=top;resizable=0;rotatable=0;part=1;labelBackgroundColor=#FFFFFF;labelBorderColor=none;" parent="91UpMNksOipdPs1jYjbq-111" vertex="1">
          <mxGeometry y="30" width="230" height="60" as="geometry" />
        </mxCell>
        <mxCell id="91UpMNksOipdPs1jYjbq-113" value="" style="fontSize=12;html=1;endArrow=ERoneToMany;startArrow=ERmandOne;rounded=0;entryX=0.413;entryY=1.025;entryDx=0;entryDy=0;entryPerimeter=0;exitX=0.417;exitY=0.011;exitDx=0;exitDy=0;exitPerimeter=0;" parent="1" edge="1">
          <mxGeometry width="100" height="100" relative="1" as="geometry">
            <mxPoint x="435.41999999999985" y="808.99" as="sourcePoint" />
            <mxPoint x="434.4999999999998" y="710" as="targetPoint" />
          </mxGeometry>
        </mxCell>
        <mxCell id="91UpMNksOipdPs1jYjbq-114" value="&lt;div&gt;&lt;br&gt;&lt;/div&gt;&lt;div&gt;&lt;br&gt;&lt;/div&gt;&lt;div&gt;Принадлежит&lt;/div&gt;" style="text;html=1;strokeColor=none;fillColor=#FFFFFF;spacing=5;spacingTop=-20;whiteSpace=wrap;overflow=hidden;rounded=0;" parent="1" vertex="1">
          <mxGeometry x="404" y="730" width="90" height="50" as="geometry" />
        </mxCell>
        <mxCell id="91UpMNksOipdPs1jYjbq-115" value="Сценарий" style="swimlane;childLayout=stackLayout;horizontal=1;startSize=30;horizontalStack=0;rounded=1;fontSize=20;fontStyle=1;strokeWidth=2;resizeParent=0;resizeLast=1;shadow=0;dashed=0;align=center;labelBackgroundColor=#FFFFFF;labelBorderColor=none;" parent="1" vertex="1">
          <mxGeometry x="1100" y="610" width="230" height="110" as="geometry">
            <mxRectangle x="400" y="-960" width="100" height="40" as="alternateBounds" />
          </mxGeometry>
        </mxCell>
        <mxCell id="91UpMNksOipdPs1jYjbq-116" value="* Название сценария&#xa;   Время начала сценария&#xa;   Время завершения сценария&#xa;   Статус устройства&#xa;  &#xa;&#xa; " style="align=left;strokeColor=none;fillColor=none;spacingLeft=4;fontSize=12;verticalAlign=top;resizable=0;rotatable=0;part=1;labelBackgroundColor=#FFFFFF;labelBorderColor=none;fontColor=#000000;" parent="91UpMNksOipdPs1jYjbq-115" vertex="1">
          <mxGeometry y="30" width="230" height="80" as="geometry" />
        </mxCell>
        <mxCell id="91UpMNksOipdPs1jYjbq-117" value="" style="edgeStyle=entityRelationEdgeStyle;fontSize=12;html=1;endArrow=ERoneToMany;startArrow=ERmandOne;rounded=0;endFill=0;exitX=1.004;exitY=0.186;exitDx=0;exitDy=0;exitPerimeter=0;" parent="1" edge="1">
          <mxGeometry width="100" height="100" relative="1" as="geometry">
            <mxPoint x="960" y="654" as="sourcePoint" />
            <mxPoint x="1099" y="654.4100000000001" as="targetPoint" />
            <Array as="points">
              <mxPoint x="949" y="774.4100000000001" />
            </Array>
          </mxGeometry>
        </mxCell>
        <mxCell id="91UpMNksOipdPs1jYjbq-118" value="&lt;div&gt;&lt;br&gt;&lt;/div&gt;&lt;div&gt;&lt;br&gt;&lt;/div&gt;&lt;div&gt;Принадлежит&lt;/div&gt;" style="text;html=1;strokeColor=none;fillColor=#FFFFFF;spacing=5;spacingTop=-20;whiteSpace=wrap;overflow=hidden;rounded=0;" parent="1" vertex="1">
          <mxGeometry x="989" y="616" width="90" height="50" as="geometry" />
        </mxCell>
        <mxCell id="91UpMNksOipdPs1jYjbq-119" value="День недели в сценарии" style="swimlane;childLayout=stackLayout;horizontal=1;startSize=30;horizontalStack=0;rounded=1;fontSize=20;fontStyle=1;strokeWidth=2;resizeParent=0;resizeLast=1;shadow=0;dashed=0;align=center;labelBackgroundColor=#FFFFFF;labelBorderColor=none;" parent="1" vertex="1">
          <mxGeometry x="1090" y="820" width="250" height="90" as="geometry">
            <mxRectangle x="400" y="-960" width="100" height="40" as="alternateBounds" />
          </mxGeometry>
        </mxCell>
        <mxCell id="91UpMNksOipdPs1jYjbq-120" value="* Название дня недели в сценарии&#xa; " style="align=left;strokeColor=none;fillColor=none;spacingLeft=4;fontSize=12;verticalAlign=top;resizable=0;rotatable=0;part=1;labelBackgroundColor=#FFFFFF;labelBorderColor=none;fontColor=#000000;" parent="91UpMNksOipdPs1jYjbq-119" vertex="1">
          <mxGeometry y="30" width="250" height="60" as="geometry" />
        </mxCell>
        <mxCell id="91UpMNksOipdPs1jYjbq-121" value="День недели" style="swimlane;childLayout=stackLayout;horizontal=1;startSize=30;horizontalStack=0;rounded=1;fontSize=20;fontStyle=1;strokeWidth=2;resizeParent=0;resizeLast=1;shadow=0;dashed=0;align=center;labelBackgroundColor=#FFFFFF;labelBorderColor=none;" parent="1" vertex="1">
          <mxGeometry x="1090" y="1010" width="250" height="90" as="geometry">
            <mxRectangle x="400" y="-960" width="100" height="40" as="alternateBounds" />
          </mxGeometry>
        </mxCell>
        <mxCell id="91UpMNksOipdPs1jYjbq-122" value="* Название дня недели &#xa; " style="align=left;strokeColor=none;fillColor=none;spacingLeft=4;fontSize=12;verticalAlign=top;resizable=0;rotatable=0;part=1;labelBackgroundColor=#FFFFFF;labelBorderColor=none;fontColor=#000000;" parent="91UpMNksOipdPs1jYjbq-121" vertex="1">
          <mxGeometry y="30" width="250" height="60" as="geometry" />
        </mxCell>
        <mxCell id="91UpMNksOipdPs1jYjbq-124" value="" style="fontSize=12;html=1;endArrow=ERzeroToMany;startArrow=ERmandOne;rounded=0;endFill=0;" parent="1" edge="1">
          <mxGeometry width="100" height="100" relative="1" as="geometry">
            <mxPoint x="1200" y="720" as="sourcePoint" />
            <mxPoint x="1200" y="820" as="targetPoint" />
          </mxGeometry>
        </mxCell>
        <mxCell id="7jaleXYuwZf097mHniNp-1" value="" style="fontSize=12;html=1;endArrow=ERzeroToMany;startArrow=ERmandOne;rounded=0;endFill=0;entryX=0.464;entryY=0.983;entryDx=0;entryDy=0;entryPerimeter=0;exitX=0.464;exitY=-0.022;exitDx=0;exitDy=0;exitPerimeter=0;" edge="1" parent="1">
          <mxGeometry width="100" height="100" relative="1" as="geometry">
            <mxPoint x="1200" y="1009" as="sourcePoint" />
            <mxPoint x="1200" y="910" as="targetPoint" />
          </mxGeometry>
        </mxCell>
        <mxCell id="91UpMNksOipdPs1jYjbq-125" value="&lt;div&gt;&lt;br&gt;&lt;/div&gt;&lt;div&gt;&lt;br&gt;&lt;/div&gt;&lt;div&gt;Принадлежит&lt;/div&gt;" style="text;html=1;strokeColor=none;fillColor=#FFFFFF;spacing=5;spacingTop=-20;whiteSpace=wrap;overflow=hidden;rounded=0;" parent="1" vertex="1">
          <mxGeometry x="1170" y="940" width="90" height="50" as="geometry" />
        </mxCell>
        <mxCell id="91UpMNksOipdPs1jYjbq-126" value="&lt;div&gt;&lt;br&gt;&lt;/div&gt;&lt;div&gt;&lt;br&gt;&lt;/div&gt;&lt;div&gt;Принадлежит&lt;/div&gt;" style="text;html=1;strokeColor=none;fillColor=#FFFFFF;spacing=5;spacingTop=-20;whiteSpace=wrap;overflow=hidden;rounded=0;" parent="1" vertex="1">
          <mxGeometry x="1160" y="750" width="90" height="50" as="geometry" />
        </mxCell>
      </root>
    </mxGraphModel>
  </diagram>
</mxfile>
